<?xml version="1.0" encoding="utf-8"?>
<!-- Generator: Adobe Illustrator 22.1.0, SVG Export Plug-In . SVG Version: 6.00 Build 0)  -->
<svg version="1.1" id="Layer_1" xmlns="http://www.w3.org/2000/svg" xmlns:xlink="http://www.w3.org/1999/xlink" x="0px" y="0px"
	 viewBox="0 0 395.7 153.9" style="enable-background:new 0 0 395.7 153.9;" xml:space="preserve">
<style type="text/css">
	.st0{fill:#1C325A;}
</style>
<g>
	<g>
		<path class="st0" d="M90.9,86.3c-3.2,2.3-6.3,4.5-9.2,6.8c-14.1,11.3-25.5,25-35.3,40.1c-3,4.6-5.7,9.5-8.5,14.2
			c-0.4,0.6-0.7,1.1-1.5,1.1c-9.6,0-19.1,0-28.7,0c-0.2,0-0.3,0-0.9-0.1C31,117.6,56.1,88,85.4,62.2c-0.5,0.2-1,0.3-1.4,0.5
			c-7,2.6-13.2,6.5-19.2,10.8c-12,8.7-22.4,19-32.1,30.1c-0.2,0.3-0.5,0.6-1,0.7C48.4,70.6,65.2,36.9,82.1,2.9
			c8,16.1,15.8,31.8,23.7,47.7c3-1.5,5.7-3,8.6-4.4c29.3-14.7,59.9-26,91.8-33.4c16.7-3.9,33.5-6.4,50.6-7.4
			c25.8-1.5,50.8,2.2,74.8,11.7c13.4,5.3,25.6,12.5,36.3,22.3c0.2,0.2,0.5,0.4,0.5,0.8c-0.1,0-0.3-0.1-0.4-0.1
			c-13.1-8.3-27.4-13.8-42.4-17.8c-15.2-4-30.7-6-46.5-6.3c-21.5-0.4-42.5,2.6-63.2,8.2c-30.2,8.1-58.7,20.5-86,35.5
			c-5.9,3.3-11.6,6.8-17.5,10.2c-0.3,0.2-0.5,0.4-0.9,0.6c13.1,26,26.2,51.9,39.3,78.1c-0.6,0-1.1,0.1-1.5,0.1c-3.9,0-7.8,0-11.6,0
			c-1.1,0-1.8-0.3-2.5-1.2c-14.4-19.8-28.8-39.6-43.3-59.3C91.7,87.5,91.4,87.1,90.9,86.3"/>
		<path class="st0" d="M325.6,148.5c-2.2-0.1-4-0.2-5.8-0.4c-5.9-0.4-11.8-0.8-17.7-1.2c-0.8-0.1-1.4-0.3-1.8-1.1
			c-7.5-13.1-15.1-26.2-22.7-39.3c-0.3-0.6-0.7-1.2-1.2-1.6c-0.2-0.3-0.7-0.3-1.1-0.5c-0.1,0.4-0.4,0.7-0.4,1.1
			c0.1,4.5,0.2,9,0.4,13.5c0.3,8.8,0.5,17.5,0.8,26.3c0.1,1.3-0.3,1.5-1.5,1.5c-6.5-0.1-13-0.1-19.5,0c-1.2,0-1.4-0.4-1.4-1.5
			c1.8-30.1,1.8-60.1,0-90.2c0-0.4,0-0.7,0-1.2c0.3,0,0.6-0.1,0.9,0c8.6,0.8,17.3,0,25.9-0.4c6.8-0.3,13.7-0.6,20.4,1.1
			c8.5,2.2,13.7,7.6,15.7,16.1c1,4.3,1.2,8.6,0.5,12.9c-1.1,6.7-5.1,11.3-11,14.2c-2.6,1.3-5.5,2.1-8.3,3.1
			c-0.3,0.1-0.7,0.2-1.2,0.4C306.2,117,315.8,132.6,325.6,148.5 M275.7,79.9c0,5.7,0,11.5,0,17.2c0,0.6-0.2,1.3,0.8,1.3
			c2.3-0.1,4.6,0.1,6.8-0.3c6.4-1.1,11-4.4,12.7-10.9c1.3-5.1,1.3-10.3,0.1-15.4c-0.4-1.5-0.9-3-1.7-4.3c-2.1-3.8-5.4-5.9-9.8-5.9
			c-2.5,0-5.1,0.1-7.6,0c-1.1,0-1.3,0.4-1.3,1.4C275.7,68.5,275.7,74.2,275.7,79.9"/>
		<path class="st0" d="M388.8,92.6c-0.3,3.6-0.6,7.2-0.8,10.7c-0.1,0.8-0.6,0.8-1.1,0.7c-5.8-0.3-11.6-0.6-17.4-0.9
			c-3.4-0.2-6.8-0.3-10.2-0.4c-0.5,0-0.9,0-1.5,0v1.6c0,10.5,0,20.9,0,31.4c0,1.9,0,2,1.9,2c4.3,0,8.7-0.1,13-0.3
			c5-0.3,9.9-0.7,14.9-1.1c0.5,0,1,0,1.6,0v10.9h-52.8c0.2-2.3,0.5-4.5,0.6-6.6c1-12.7,1.1-25.4,0.8-38.1
			c-0.4-16.1-0.9-32.2-1.4-48.2c0-0.2,0-0.4,0-0.7c17.6,1.3,35.1,0.3,52.7-0.1v11.3c-2,0-4,0.1-6.1,0c-8.1-0.3-16.2-0.7-24.2-1.1
			c-1.2-0.1-1.5,0.3-1.5,1.5c0,9.1,0,18.2,0,27.3c0,0.5,0,0.9,0.1,1.7C367.9,93.5,378.5,93,388.8,92.6"/>
		<path class="st0" d="M236.1,130.7c0.8,0.5,1.5,0.9,2.2,1.3c-0.7,1.7-1.6,3.3-2.1,4.9c-0.6,1.9-1,3.8-1.3,5.8
			c-0.1,0.9-0.7,1-1.3,1.3c-6.9,2.6-14,4.2-21.4,4.9c-9.3,0.8-18.4,0.1-27.1-3.3c-8.3-3.2-15.6-7.9-20.6-15.4
			c-4-5.9-6.3-12.5-7.3-19.5c-1.2-8.2-0.9-16.4,1.4-24.4c4-13.7,12.6-23.5,25.5-29.3c8.8-4,18.1-5.4,27.7-4.9
			c8.8,0.4,17.2,2.5,25.3,5.9c0.9,0.4,1.2,0.8,0.9,1.8c-0.9,3.5-1.6,7.1-2.5,10.6c-0.1,0.5-0.4,1.3-0.7,1.4
			c-0.8,0.2-1.7,0.3-2.3-0.6c-2.5-3.4-5.6-6.1-9.4-7.9c-10.1-4.9-19.8-3.9-28.7,2.6c-9.8,7.1-14.8,17.1-15.8,29
			c-0.9,9.8,0.6,19.3,4.6,28.3c3.3,7.4,8.3,13.1,16,16.2c3.5,1.4,7.2,2,11,2c4.9,0,9.7-0.5,14.3-2
			C229.8,137.4,232.7,135.3,236.1,130.7"/>
	</g>
</g>
</svg>
