<?xml version="1.0" encoding="utf-8"?>
<!-- Generator: Adobe Illustrator 21.1.0, SVG Export Plug-In . SVG Version: 6.00 Build 0)  -->
<svg version="1.1" id="Layer_1" xmlns="http://www.w3.org/2000/svg" xmlns:xlink="http://www.w3.org/1999/xlink" x="0px" y="0px"
	 viewBox="0 0 40.1 62.8" style="enable-background:new 0 0 40.1 62.8;" xml:space="preserve">
<style type="text/css">
	.st0{fill:#CEC8B8;}
</style>
<path class="st0" d="M38.5,23.2c-0.1,1.1-0.2,2.1-0.4,3.2c-0.5,3.4-1.7,6.6-3,9.8C31.5,44,26.8,51,21.4,57.5
	c-0.6,0.7-1.2,0.7-1.8,0.1c-6-7.3-11.3-15-14.7-23.9c-1.1-2.9-1.9-5.9-2.2-9c0-0.4-0.1-0.8-0.1-1.2v-2.2c0.1-0.7,0.2-1.4,0.3-2.1
	C4.2,12,9.8,6.3,16.9,4.8c0.9-0.2,1.9-0.3,2.8-0.4h1.8c0.6,0.1,1.2,0.1,1.8,0.2c7.2,1.1,13.2,6.8,14.7,13.9c0.2,0.9,0.3,1.8,0.4,2.7
	V23.2z M20.5,55.5c0.2-0.2,0.3-0.3,0.4-0.5c3.2-4,6.2-8.2,8.7-12.7c3-5.1,5.5-10.5,6.5-16.4c0.4-2.6,0.5-5.2-0.2-7.8
	c-2.2-8.1-10-13-18.5-11.4C9.7,8.1,4,15,4.7,24c0.2,2.9,0.9,5.7,1.9,8.4C9.8,40.9,14.8,48.3,20.5,55.5"/>
<path class="st0" d="M20.5,31.1c-4.1,0-7.8-3.6-7.8-7.7c0-4.1,3.6-7.7,7.8-7.7c4.2,0,7.8,3.6,7.8,7.8C28.3,27.5,24.7,31.1,20.5,31.1
	 M20.5,29.1c3.1,0.1,5.6-2.3,5.8-5.4c0.1-3.3-2.1-6-5.5-6.1c-3.3-0.1-5.8,2.3-5.9,5.4C14.7,26.3,16.9,29,20.5,29.1"/>
</svg>
