<?xml version="1.0" encoding="utf-8"?>
<!-- Generator: Adobe Illustrator 21.1.0, SVG Export Plug-In . SVG Version: 6.00 Build 0)  -->
<svg version="1.1" id="Layer_1" xmlns="http://www.w3.org/2000/svg" xmlns:xlink="http://www.w3.org/1999/xlink" x="0px" y="0px"
	 viewBox="0 0 413.1 413" style="enable-background:new 0 0 413.1 413;" xml:space="preserve">
<style type="text/css">
	.st0{fill:#CCC7B6;}
</style>
<title>Artboard 3</title>
<path class="st0" d="M311.5,121.3c0-57.1-46.3-103.4-103.4-103.4S104.7,64.2,104.7,121.3S151,224.7,208.1,224.7
	S311.5,178.4,311.5,121.3z M208.1,207.5c-47.6,0-86.2-38.6-86.2-86.2s38.6-86.2,86.2-86.2s86.2,38.6,86.2,86.2
	C294.2,168.9,255.7,207.4,208.1,207.5z"/>
<path class="st0" d="M199.5,95.5H234c4.8,0,8.6-3.9,8.6-8.6s-3.9-8.6-8.6-8.6h-17.2v-8.6c0-4.8-3.9-8.6-8.6-8.6s-8.6,3.9-8.6,8.6
	v8.6c-14.3,0-25.9,11.6-25.9,25.9s11.6,25.9,25.9,25.9h17.2c4.8,0,8.6,3.9,8.6,8.6s-3.9,8.6-8.6,8.6h-34.5c-4.8,0-8.6,3.9-8.6,8.6
	s3.9,8.6,8.6,8.6h17.2v8.6c0,4.8,3.9,8.6,8.6,8.6s8.6-3.9,8.6-8.6v-8.6c14.3,0,25.9-11.6,25.9-25.9s-11.6-25.9-25.9-25.9h-17.2
	c-4.8,0-8.6-3.9-8.6-8.6S194.7,95.5,199.5,95.5z"/>
<path class="st0" d="M137.3,247.4c-10.1-10.1-26.5-10.1-36.6,0.1c-1.5,1.6-2.9,3.3-4,5.2l-9.2-6.5V199c0-14.3-11.6-25.9-25.9-25.9
	S35.7,184.7,35.7,199v78.1c0,7.6,3.3,14.8,9.1,19.7l77.1,69.8v22c0,4.8,3.9,8.6,8.6,8.6l0,0h51.7c4.8,0,8.6-3.9,8.6-8.6l0,0v-79
	c0-6.9-2.8-13.5-7.7-18.4L137.3,247.4z M146.1,303.1L146.1,303.1L113,271.8c-3.4-3.4-3.4-8.8,0-12.2c3.4-3.4,8.8-3.4,12.2,0l0.1,0.1
	l45.8,43.6c1.6,1.6,2.5,3.8,2.5,6.1v70.4h-34.5v-17.2c0-2.4-1-4.8-2.8-6.4l-80.2-72.6c-2-1.6-3.1-4.1-3.1-6.7v-78.1
	c0-4.8,3.9-8.6,8.6-8.6s8.6,3.9,8.6,8.6v51.7c0,2.8,1.4,5.4,3.7,7L94,271.8c1.1,4.7,3.6,8.9,7,12.3l33.3,31.5"/>
<path class="st0" d="M354.6,173c-14.3,0-25.8,11.6-25.9,25.9v47.2l-9.2,6.5c-1.1-1.9-2.5-3.7-4-5.2c-10-10-26.3-10.1-36.4-0.1
	L233,291.2c-4.9,4.8-7.6,11.4-7.6,18.2v79c0,4.8,3.9,8.6,8.6,8.6l0,0h51.7c4.8,0,8.6-3.9,8.6-8.6l0,0v-22l76.9-69.6
	c5.9-4.9,9.3-12.2,9.3-19.9v-78.1C380.4,184.6,368.9,173,354.6,173z M363.2,276.9c0,2.7-1.3,5.2-3.4,6.9l-79.9,72.4
	c-1.8,1.6-2.8,4-2.8,6.4v17.2h-34.5v-70.4c0-2.2,0.8-4.3,2.4-5.9l46.1-43.9c3.4-3.4,8.8-3.4,12.2,0c3.3,3.3,3.4,8.6,0.2,12
	l-33.3,31.5c-3.5,3.3-3.6,8.7-0.3,12.2c3.3,3.5,8.7,3.6,12.2,0.3l0,0l33.5-31.6c3.4-3.4,5.7-7.6,6.8-12.2l20-14.1
	c2.3-1.6,3.7-4.2,3.7-7V199c0-4.8,3.9-8.6,8.6-8.6c4.8,0,8.6,3.9,8.6,8.6v77.9H363.2z"/>
</svg>
