<svg fill="#000000" xmlns="http://www.w3.org/2000/svg"  viewBox="0 0 100 100" width="100px" height="100px"><path d="M79.421 31.961h-2c-.276 0-.5-.224-.5-.5s.224-.5.5-.5h2c.276 0 .5.224.5.5S79.698 31.961 79.421 31.961zM75.421 31.961h-60c-.276 0-.5-.224-.5-.5s.224-.5.5-.5h60c.276 0 .5.224.5.5S75.698 31.961 75.421 31.961zM24.421 25.961c-1.379 0-2.5-1.122-2.5-2.5s1.121-2.5 2.5-2.5 2.5 1.122 2.5 2.5S25.8 25.961 24.421 25.961zM24.421 21.961c-.827 0-1.5.673-1.5 1.5s.673 1.5 1.5 1.5 1.5-.673 1.5-1.5S25.248 21.961 24.421 21.961zM76.421 25.961c-1.379 0-2.5-1.122-2.5-2.5s1.121-2.5 2.5-2.5 2.5 1.122 2.5 2.5S77.8 25.961 76.421 25.961zM76.421 21.961c-.827 0-1.5.673-1.5 1.5s.673 1.5 1.5 1.5 1.5-.673 1.5-1.5S77.248 21.961 76.421 21.961zM74.921 19.961c-.553 0-1-.448-1-1v-6c0-.552.447-1 1-1s1 .448 1 1v6C75.921 19.513 75.474 19.961 74.921 19.961zM67.921 19.961c-.553 0-1-.448-1-1v-6c0-.552.447-1 1-1s1 .448 1 1v6C68.921 19.513 68.474 19.961 67.921 19.961zM60.921 19.961c-.553 0-1-.448-1-1v-6c0-.552.447-1 1-1s1 .448 1 1v6C61.921 19.513 61.474 19.961 60.921 19.961zM53.921 19.961c-.553 0-1-.448-1-1v-6c0-.552.447-1 1-1s1 .448 1 1v6C54.921 19.513 54.474 19.961 53.921 19.961zM46.921 19.961c-.553 0-1-.448-1-1v-6c0-.552.447-1 1-1s1 .448 1 1v6C47.921 19.513 47.474 19.961 46.921 19.961zM39.921 19.961c-.553 0-1-.448-1-1v-6c0-.552.447-1 1-1s1 .448 1 1v6C40.921 19.513 40.474 19.961 39.921 19.961zM32.921 19.961c-.553 0-1-.448-1-1v-6c0-.552.447-1 1-1s1 .448 1 1v6C33.921 19.513 33.474 19.961 32.921 19.961zM25.921 19.961c-.553 0-1-.448-1-1v-6c0-.552.447-1 1-1s1 .448 1 1v6C26.921 19.513 26.474 19.961 25.921 19.961zM85.421 31.961h-4c-.276 0-.5-.224-.5-.5s.224-.5.5-.5h4c.276 0 .5.224.5.5S85.698 31.961 85.421 31.961z"/><path d="M83.434,88.961H17.661c-2.062,0-3.739-1.677-3.739-3.739V23.728c0-4.834,3.934-8.767,8.768-8.767h55.465c4.834,0,8.768,3.933,8.768,8.767v61.746C86.921,87.396,85.357,88.961,83.434,88.961z M22.689,16.961c-3.731,0-6.768,3.036-6.768,6.767v61.494c0,0.959,0.78,1.739,1.739,1.739h65.773c0.82,0,1.487-0.667,1.487-1.487V23.728c0-3.731-3.036-6.767-6.768-6.767H22.689z"/><path d="M38.421 47.961h-6c-.276 0-.5-.224-.5-.5v-3c0-.276.224-.5.5-.5s.5.224.5.5v2.5h5v-5h-1.5c-.276 0-.5-.224-.5-.5s.224-.5.5-.5h2c.276 0 .5.224.5.5v6C38.921 47.737 38.698 47.961 38.421 47.961zM48.421 47.961h-6c-.276 0-.5-.224-.5-.5v-6c0-.276.224-.5.5-.5h6c.276 0 .5.224.5.5v6C48.921 47.737 48.698 47.961 48.421 47.961zM42.921 46.961h5v-5h-5V46.961zM58.421 47.961h-6c-.276 0-.5-.224-.5-.5v-6c0-.276.224-.5.5-.5h6c.276 0 .5.224.5.5v6C58.921 47.737 58.698 47.961 58.421 47.961zM52.921 46.961h5v-5h-5V46.961zM68.421 47.961h-6c-.276 0-.5-.224-.5-.5v-6c0-.276.224-.5.5-.5h6c.276 0 .5.224.5.5v6C68.921 47.737 68.698 47.961 68.421 47.961zM62.921 46.961h5v-5h-5V46.961zM78.421 47.961h-6c-.276 0-.5-.224-.5-.5v-6c0-.276.224-.5.5-.5h6c.276 0 .5.224.5.5v6C78.921 47.737 78.698 47.961 78.421 47.961zM72.921 46.961h5v-5h-5V46.961zM38.421 57.961h-6c-.276 0-.5-.224-.5-.5v-6c0-.276.224-.5.5-.5h6c.276 0 .5.224.5.5v6C38.921 57.737 38.698 57.961 38.421 57.961zM32.921 56.961h5v-5h-5V56.961zM48.421 57.961h-6c-.276 0-.5-.224-.5-.5v-6c0-.276.224-.5.5-.5h6c.276 0 .5.224.5.5v6C48.921 57.737 48.698 57.961 48.421 57.961zM42.921 56.961h5v-5h-5V56.961zM58.421 57.961h-6c-.276 0-.5-.224-.5-.5v-6c0-.276.224-.5.5-.5h6c.276 0 .5.224.5.5v6C58.921 57.737 58.698 57.961 58.421 57.961zM52.921 56.961h5v-5h-5V56.961zM68.421 57.961h-6c-.276 0-.5-.224-.5-.5v-6c0-.276.224-.5.5-.5h6c.276 0 .5.224.5.5v6C68.921 57.737 68.698 57.961 68.421 57.961zM62.921 56.961h5v-5h-5V56.961zM78.421 57.961h-6c-.276 0-.5-.224-.5-.5v-6c0-.276.224-.5.5-.5h6c.276 0 .5.224.5.5v6C78.921 57.737 78.698 57.961 78.421 57.961zM72.921 56.961h5v-5h-5V56.961zM28.421 57.961h-6c-.276 0-.5-.224-.5-.5v-6c0-.276.224-.5.5-.5h6c.276 0 .5.224.5.5v6C28.921 57.737 28.698 57.961 28.421 57.961zM22.921 56.961h5v-5h-5V56.961zM38.421 67.961h-6c-.276 0-.5-.224-.5-.5v-6c0-.276.224-.5.5-.5h6c.276 0 .5.224.5.5v6C38.921 67.737 38.698 67.961 38.421 67.961zM32.921 66.961h5v-5h-5V66.961zM48.421 67.961h-6c-.276 0-.5-.224-.5-.5v-6c0-.276.224-.5.5-.5h6c.276 0 .5.224.5.5v6C48.921 67.737 48.698 67.961 48.421 67.961zM42.921 66.961h5v-5h-5V66.961zM58.421 67.961h-6c-.276 0-.5-.224-.5-.5v-6c0-.276.224-.5.5-.5h6c.276 0 .5.224.5.5v6C58.921 67.737 58.698 67.961 58.421 67.961zM52.921 66.961h5v-5h-5V66.961zM68.421 67.961h-6c-.276 0-.5-.224-.5-.5v-6c0-.276.224-.5.5-.5h6c.276 0 .5.224.5.5v6C68.921 67.737 68.698 67.961 68.421 67.961zM62.921 66.961h5v-5h-5V66.961zM78.421 67.961h-6c-.276 0-.5-.224-.5-.5v-6c0-.276.224-.5.5-.5h6c.276 0 .5.224.5.5v6C78.921 67.737 78.698 67.961 78.421 67.961zM72.921 66.961h5v-5h-5V66.961zM28.421 67.961h-6c-.276 0-.5-.224-.5-.5v-6c0-.276.224-.5.5-.5h6c.276 0 .5.224.5.5v6C28.921 67.737 28.698 67.961 28.421 67.961zM22.921 66.961h5v-5h-5V66.961zM38.421 77.961h-6c-.276 0-.5-.224-.5-.5v-6c0-.276.224-.5.5-.5h6c.276 0 .5.224.5.5v6C38.921 77.737 38.698 77.961 38.421 77.961zM32.921 76.961h5v-5h-5V76.961zM48.421 77.961h-6c-.276 0-.5-.224-.5-.5v-6c0-.276.224-.5.5-.5h6c.276 0 .5.224.5.5v6C48.921 77.737 48.698 77.961 48.421 77.961zM42.921 76.961h5v-5h-5V76.961zM57.421 77.961h-5c-.276 0-.5-.224-.5-.5v-6c0-.276.224-.5.5-.5h6c.276 0 .5.224.5.5v4c0 .276-.224.5-.5.5s-.5-.224-.5-.5v-3.5h-5v5h4.5c.276 0 .5.224.5.5S57.698 77.961 57.421 77.961zM28.421 77.961h-6c-.276 0-.5-.224-.5-.5v-6c0-.276.224-.5.5-.5h6c.276 0 .5.224.5.5v6C28.921 77.737 28.698 77.961 28.421 77.961zM22.921 76.961h5v-5h-5V76.961z"/></svg>