<?xml version="1.0" encoding="utf-8"?>
<!-- Generator: Adobe Illustrator 22.1.0, SVG Export Plug-In . SVG Version: 6.00 Build 0)  -->
<svg version="1.1" id="Layer_1" xmlns="http://www.w3.org/2000/svg" xmlns:xlink="http://www.w3.org/1999/xlink" x="0px" y="0px"
	 viewBox="0 0 566.9 566.9" style="enable-background:new 0 0 566.9 566.9;" xml:space="preserve">
<style type="text/css">
	.st0{fill:#CDC8B8;}
</style>
<g>
	<path class="st0" d="M476.1,127c-7-7-18.4-7-25.4,0c0,0,0,0,0,0L283.5,294.1l-59.2-59.2c-7-7-18.4-7-25.4,0c-7,7-7,18.4,0,25.4
		l71.9,71.9c7,7,18.4,7,25.4,0c0,0,0,0,0,0l179.9-179.9C483.1,145.4,483.1,134,476.1,127C476.1,127,476.1,127,476.1,127z"/>
	<path class="st0" d="M456.1,229.9c-9.7,2-16,11.5-14,21.2C460,338.7,403.6,424.3,316,442.2c-87.6,17.9-173.1-38.5-191.1-126.1
		C107,228.5,163.5,143,251.1,125c38-7.8,77.6-1.7,111.5,17.3c8.7,4.9,19.7,1.8,24.6-6.9c4.9-8.7,1.8-19.7-6.9-24.6
		c-95.3-53.4-215.9-19.4-269.3,75.9s-19.4,215.9,75.9,269.3s215.9,19.4,269.3-75.9c16.5-29.5,25.2-62.7,25.2-96.5
		c0-13.3-1.3-26.6-4-39.7C475.4,234.2,465.9,227.9,456.1,229.9z"/>
</g>
</svg>
