<?xml version="1.0" encoding="utf-8"?>
<!-- Generator: Adobe Illustrator 22.1.0, SVG Export Plug-In . SVG Version: 6.00 Build 0)  -->
<svg version="1.1" id="Layer_1" xmlns="http://www.w3.org/2000/svg" xmlns:xlink="http://www.w3.org/1999/xlink" x="0px" y="0px"
	 viewBox="0 0 566.9 566.9" style="enable-background:new 0 0 566.9 566.9;" xml:space="preserve">
<style type="text/css">
	.st0{fill:#CDC8B8;}
</style>
<path class="st0" d="M512,298.6l-0.1-1.3h-0.4l-64.9-153.9c3.2-5,4.8-10.8,4.8-16.7c0-17.4-14.2-31.6-31.6-31.6
	c-13.1,0-24.9,8.2-29.5,20.4H345l0.9-4.1c1.2-5.6,0.1-11-3.2-15c-3.3-4-8.3-6.3-14-6.3h-91c-5.8,0-10.7,2.2-14,6.3
	c-3.3,4-4.4,9.4-3.2,15l0.9,4.1h-45.2c-4.6-12.2-16.4-20.4-29.5-20.4c-17.4,0-31.6,14.2-31.6,31.6c0,5.9,1.7,11.7,4.8,16.7
	L54.5,298.5l-0.1,0.5c0.2,47.9,41.6,86.8,92.3,86.8c50.6,0,92-38.9,92.3-86.8l0-0.3l-65.5-155.4c2-3.2,3.4-6.6,4.1-10.3h47.6l2,9.4
	c2.5,11.5,14,20.8,25.7,20.8h3.8v245.2h-49.3c-11.7,0-23.9,9.1-27.4,20.2l-8.3,27.1c-1.7,5.5-1,10.8,1.9,14.8
	c2.9,4,7.8,6.2,13.5,6.2h192.1c5.8,0,10.6-2.2,13.6-6.2c2.9-4,3.6-9.2,1.9-14.8l-8.3-27.1c-3.4-11.1-15.7-20.2-27.4-20.2h-49.3
	V163.4h3.8c11.7,0,23.2-9.3,25.7-20.8l2-9.4h47.6c0.8,3.7,2.1,7.1,4.1,10.3l-65.5,155l-0.3,1.2l0.4,0.2c0.7,47.5,41.9,86,92.3,86
	c50.3,0,91.5-38.4,92.2-85.9l0.5-0.2L512,298.6z M492.2,315.1c-8.1,30.9-38.3,53.1-72.5,53.1c-34.2,0-64.4-22.2-72.5-53.1H492.2z
	 M419.7,140.6c-7.7,0-13.9-6.2-13.9-13.9c0-7.7,6.2-13.9,13.9-13.9c7.7,0,13.9,6.2,13.9,13.9C433.6,134.4,427.4,140.6,419.7,140.6z
	 M432.4,155.6l59.8,141.7H347.1L407,155.6C415.1,159.2,424.3,159.2,432.4,155.6z M274.4,408.6V163.4h17.7v245.2H274.4z M359,426.3
	c3.9,0,9.3,4,10.5,7.7l7.7,25.1H189.2l7.7-25.1c1.2-3.8,6.5-7.7,10.5-7.7H359z M328.6,107.8l-6.7,31.1c-0.7,3.3-5,6.8-8.4,6.8h-60.7
	c-3.4,0-7.7-3.5-8.4-6.8l-6.7-31.1H328.6z M219.2,315.1c-8.1,30.9-38.3,53.1-72.5,53.1c-34.2,0-64.4-22.2-72.5-53.1H219.2z
	 M146.7,140.6c-7.7,0-13.9-6.2-13.9-13.9c0-7.7,6.2-13.9,13.9-13.9c7.7,0,13.9,6.2,13.9,13.9C160.6,134.4,154.4,140.6,146.7,140.6z
	 M159.4,155.6l59.8,141.7H74L134,155.6C142,159.2,151.3,159.2,159.4,155.6z"/>
</svg>
