<?xml version="1.0" encoding="utf-8"?>
<!-- Generator: Adobe Illustrator 22.1.0, SVG Export Plug-In . SVG Version: 6.00 Build 0)  -->
<svg version="1.1" id="Layer_1" xmlns="http://www.w3.org/2000/svg" xmlns:xlink="http://www.w3.org/1999/xlink" x="0px" y="0px"
	 viewBox="0 0 566.9 566.9" style="enable-background:new 0 0 566.9 566.9;" xml:space="preserve">
<style type="text/css">
	.st0{fill:#CDC8B8;}
</style>
<g>
	<path class="st0" d="M474.5,276.6h-32.9c-1.7-39.4-18.1-76.6-46.2-104.6c-28-28-65-44.3-104.2-46V92.9c0-3.8-3.1-6.9-6.9-6.9
		s-6.9,3.1-6.9,6.9V126c-39.5,1.7-76.7,18-104.8,46c-28.1,28-44.5,65.1-46.2,104.6H92.5c-3.8,0-6.9,3.1-6.9,6.9
		c0,3.8,3.1,6.9,6.9,6.9h33.9c1.7,39.5,18.1,76.7,46.2,104.8c28.1,28.1,65.3,44.4,104.8,46.1V474c0,3.8,3.1,6.9,6.9,6.9
		s6.9-3.1,6.9-6.9v-32.8c81-3.5,146.9-69.7,150.4-150.9h32.9c3.8,0,6.9-3.1,6.9-6.9C481.3,279.7,478.3,276.6,474.5,276.6z
		 M428,283.6c0,79.4-64.6,144-144,144s-144-64.6-144-144s64.6-144,144-144S428,204.2,428,283.6z"/>
	<path class="st0" d="M306.8,117.3c36.6,5,69.7,21.5,95.8,47.6c26.1,26.1,42.6,59.2,47.6,95.8c0.5,3.4,3.4,5.9,6.8,5.9
		c0.3,0,0.6,0,0.9-0.1c3.7-0.5,6.4-4,5.9-7.7c-5.5-39.6-23.3-75.4-51.5-103.6c-28.2-28.2-64.1-46-103.6-51.5
		c-1.8-0.2-3.6,0.2-5.1,1.3c-1.5,1.1-2.4,2.7-2.7,4.5c-0.3,1.8,0.2,3.6,1.3,5.1C303.4,116.1,305,117.1,306.8,117.3z"/>
	<path class="st0" d="M262.4,450.3l0.2-0.1l-1.6-0.2c-36.6-5-69.7-21.5-95.8-47.6c-26.1-26.1-42.6-59.2-47.6-95.8
		c-0.3-1.8-1.2-3.4-2.7-4.5c-1.5-1.1-3.3-1.6-5.1-1.3c-1.8,0.3-3.4,1.2-4.5,2.7c-1.1,1.5-1.6,3.3-1.3,5.1
		c5.5,39.6,23.3,75.4,51.5,103.6c28.2,28.2,64.1,46,103.6,51.5c0.3,0,0.6,0.1,0.9,0.1c3.8,0,6.9-3.1,6.9-6.9
		C267,453.8,265.1,451.2,262.4,450.3z"/>
	<path class="st0" d="M109.9,266.6c0.3,0,0.6,0.1,0.9,0.1c3.4,0,6.3-2.6,6.8-5.9c5-36.6,21.5-69.7,47.6-95.8s59.2-42.6,95.8-47.6
		c3.7-0.5,6.4-4,5.9-7.7c-0.5-3.8-4-6.4-7.7-5.9c-39.6,5.5-75.4,23.3-103.6,51.5c-28.2,28.2-46,64.1-51.5,103.6
		C103.5,262.6,106.2,266.1,109.9,266.6z"/>
	<path class="st0" d="M458,300.7c-3.8-0.5-7.2,2.1-7.7,5.9c-5,36.6-21.5,69.7-47.6,95.8c-26.1,26.1-59.2,42.6-95.8,47.6
		c-1.8,0.3-3.4,1.2-4.5,2.7c-1.1,1.5-1.6,3.3-1.3,5.1c0.5,3.4,3.4,5.9,6.8,5.9c0.3,0,0.6,0,0.9-0.1c39.6-5.5,75.4-23.3,103.6-51.5
		c28.2-28.2,46-64.1,51.5-103.6C464.4,304.6,461.7,301.2,458,300.7z"/>
	<path class="st0" d="M363.9,239.4l9.5-12.8c2.1-2.8,1.7-6.7-0.8-9.1l-20.3-19.2c-2.3-2.2-5.9-2.5-8.6-0.7l-14,9.5
		c-7.1-3.9-14.7-6.8-22.5-8.8l-2.8-15.4c-0.6-3.2-3.4-5.6-6.7-5.6c0,0-0.1,0-0.1,0h-28.5c-3.4,0-6.2,2.3-6.8,5.6l-2.8,15.5
		c-7.8,2-15.4,4.9-22.5,8.8l-14-9.3c-2.7-1.8-6.2-1.5-8.5,0.7l-20.3,19.2c-2.5,2.4-2.9,6.3-0.8,9.1l9.5,12.8
		c-3.9,6.5-6.9,13.6-9,20.9l-16.6,2.7c-3.3,0.5-5.7,3.4-5.7,6.8v27c0,3.3,2.4,6.2,5.7,6.8l16.6,2.7c2.1,7.3,5.1,14.3,9,20.9
		l-9.5,12.8c-2.1,2.8-1.7,6.7,0.8,9.1l20.3,19.2c2.3,2.2,5.8,2.5,8.5,0.7l14-9.3c7.1,3.9,14.7,6.8,22.6,8.8l2.8,15.4
		c0.6,3.2,3.4,5.6,6.7,5.6c0,0,0.1,0,0.1,0h28.5c3.4,0.1,6.2-2.3,6.8-5.6l2.8-15.5c7.8-2,15.4-4.9,22.5-8.8l14,9.3
		c2.7,1.8,6.2,1.5,8.5-0.7l20.3-19.2c2.5-2.4,2.9-6.3,0.8-9.1l-9.8-13.1c3.9-6.5,6.9-13.5,9-20.9l16.8-2.7c3.3-0.5,5.7-3.4,5.7-6.8
		v-27c0-3.3-2.4-6.2-5.7-6.8l-16.6-2.7C370.8,252.9,367.8,245.9,363.9,239.4z M349.8,331.4l9,12l-11.9,11.3l-13-8.7
		c-2.2-1.5-5.1-1.5-7.3-0.2c-8.2,4.9-17.2,8.4-26.6,10.3c-2.7,0.5-4.9,2.7-5.4,5.4l-2.6,14.3h-17l-2.6-14.3c-0.5-2.8-2.7-5-5.4-5.5
		c-9.4-1.9-18.4-5.3-26.6-10.3c-2.3-1.4-5.2-1.3-7.4,0.2l-13,8.7l-11.9-11.3l8.7-11.7c1.7-2.3,1.8-5.5,0.2-7.9
		c-5.1-7.6-8.7-16-10.8-25c-0.6-2.7-2.8-4.8-5.5-5.3l-15.2-2.4v-15.3l15.2-2.5c2.8-0.5,5-2.5,5.6-5.3c2-8.9,5.6-17.3,10.7-24.9
		c1.6-2.4,1.6-5.6-0.2-7.9l-8.7-11.7l11.9-11.3l13,8.7c2.2,1.5,5.1,1.5,7.3,0.2c8.2-4.9,17.2-8.4,26.6-10.3c2.7-0.5,4.9-2.7,5.4-5.4
		l2.6-14.3h17l2.6,14.3c0.5,2.8,2.7,5,5.4,5.5c9.4,1.9,18.4,5.3,26.6,10.3c2.3,1.4,5.2,1.3,7.4-0.2l13-8.8l11.9,11.2l-8.7,11.7
		c-1.7,2.3-1.8,5.5-0.2,7.9c5.1,7.6,8.8,16,10.8,25c0.6,2.7,2.8,4.8,5.5,5.3l15.2,2.4v15.3l-15.5,2.5c-2.8,0.4-5,2.5-5.6,5.3
		c-2,8.9-5.6,17.3-10.7,24.9C348,325.9,348,329.1,349.8,331.4z"/>
	<path class="st0" d="M305.4,261.8v-0.1l-29.8,28.1l-13-13.3c-2.7-2.7-7-2.7-9.7-0.1c-2.7,2.6-2.7,7-0.1,9.6l17.7,18.2
		c1.3,1.4,3.1,2.1,4.9,2.1c1.7,0,3.4-0.6,4.7-1.9l33.8-31.9c1.3-1.3,2.1-3,2.1-4.8c0-1.8-0.6-3.6-1.9-4.9
		C311.9,260.3,308.1,260,305.4,261.8z"/>
	<path class="st0" d="M283.5,222.8c-33.4,0-60.6,27.2-60.6,60.6s27.2,60.6,60.6,60.6s60.6-27.2,60.6-60.6
		C344,250.1,316.8,222.9,283.5,222.8z M330.4,283.5c0,25.8-21.1,46.9-46.9,46.9c-25.9,0-46.9-21-46.9-46.9c0-25.9,21-46.9,46.9-46.9
		S330.4,257.6,330.4,283.5z"/>
</g>
</svg>
