<?xml version="1.0" encoding="utf-8"?>
<!-- Generator: Adobe Illustrator 22.1.0, SVG Export Plug-In . SVG Version: 6.00 Build 0)  -->
<svg version="1.1" id="Layer_1" xmlns="http://www.w3.org/2000/svg" xmlns:xlink="http://www.w3.org/1999/xlink" x="0px" y="0px"
	 viewBox="0 0 566.9 566.9" style="enable-background:new 0 0 566.9 566.9;" xml:space="preserve">
<style type="text/css">
	.st0{fill:#CDC8B8;}
</style>
<g>
	<path class="st0" d="M202.5,271.9h162c6.4,0,11.6-5.2,11.6-11.6c0-39.1-19.8-74.4-51-92c7-9.1,10.5-19,10.5-29.5
		c0-28.7-23.4-52.1-52.1-52.1s-52.1,23.4-52.1,52.1c0,10.5,3.5,20.4,10.5,29.5c-31.2,17.6-51,52.9-51,92
		C190.9,266.7,196.1,271.9,202.5,271.9z M263.6,182.7c6.1-2,9.3-8.6,7.3-14.6c-0.8-2.2-2.2-4.2-4.1-5.7
		c-7.7-5.5-12.2-14.3-12.2-23.5c0-15.9,13-28.9,28.9-28.9s28.9,13,28.9,28.9c0,9.2-4.6,18-12.3,23.6c-5.1,3.8-6.2,11.1-2.3,16.2
		c1.4,1.9,3.4,3.3,5.6,4c25.5,8.7,44.3,34.9,48.1,66.1H215.5C219.4,217.5,238.2,191.4,263.6,182.7z"/>
	<path class="st0" d="M163,376.6c7-9.1,10.5-19,10.5-29.5c0-28.7-23.4-52.1-52.1-52.1s-52.1,23.4-52.1,52.1
		c0,10.5,3.5,20.4,10.5,29.5c-31.2,17.6-51,52.9-51,92c0,6.4,5.2,11.6,11.6,11.6h162c6.4,0,11.6-5.2,11.6-11.6
		C214,429.5,194.3,394.2,163,376.6z M101.6,390.9c6.1-2,9.3-8.6,7.3-14.6c-0.8-2.2-2.2-4.2-4.1-5.7c-7.7-5.5-12.2-14.3-12.2-23.5
		c0-15.9,13-28.9,28.9-28.9s28.9,13,28.9,28.9c0,9.2-4.6,18-12.3,23.6c-5.1,3.8-6.2,11.1-2.3,16.2c1.4,1.9,3.4,3.3,5.6,4
		c25.5,8.7,44.3,34.9,48.1,66.1H53.5C57.4,425.8,76.2,399.6,101.6,390.9z"/>
	<path class="st0" d="M487,376.6c7-9.1,10.5-19,10.5-29.5c0-28.7-23.4-52.1-52.1-52.1c-28.7,0-52.1,23.4-52.1,52.1
		c0,10.5,3.5,20.4,10.5,29.5c-31.2,17.6-51,52.9-51,92c0,6.4,5.2,11.6,11.6,11.6h162c6.4,0,11.6-5.2,11.6-11.6
		C538,429.5,518.2,394.2,487,376.6z M425.6,390.9c2.9-1,5.3-3,6.7-5.8c1.4-2.8,1.6-5.9,0.6-8.8c-0.8-2.2-2.2-4.2-4.1-5.7
		c-7.7-5.5-12.2-14.3-12.2-23.5c0-15.9,13-28.9,28.9-28.9c15.9,0,28.9,13,28.9,28.9c0,9.2-4.6,18-12.3,23.6
		c-5.1,3.8-6.2,11.1-2.3,16.2c1.4,1.9,3.4,3.3,5.6,4c25.5,8.7,44.3,34.9,48.1,66.1H377.5C381.3,425.8,400.1,399.6,425.6,390.9z"/>
	<path class="st0" d="M341.2,383.3L295,357.6l0-56.6c0.1-3.1-1-6-3.1-8.3c-2.1-2.3-5-3.6-8-3.7c-0.5,0-1,0-1.5,0l-0.5,0.1
		c-0.5,0.1-0.9,0.2-0.9,0.2c-5.4,1.2-9.2,6.1-9,11.4v56.8l-46.3,25.7c-5.6,3.2-7.5,10.3-4.3,15.8c1.5,2.7,4,4.6,7,5.4
		c1,0.3,2.1,0.4,3.1,0.4c2,0,3.9-0.5,5.7-1.5l46.4-25.7l46.3,25.7c2.7,1.5,5.8,1.9,8.8,1.1c3-0.8,5.5-2.8,7-5.4
		c1.5-2.7,1.9-5.8,1.1-8.8C345.9,387.3,344,384.8,341.2,383.3z"/>
</g>
</svg>
