<?xml version="1.0" encoding="utf-8"?>
<!-- Generator: Adobe Illustrator 21.1.0, SVG Export Plug-In . SVG Version: 6.00 Build 0)  -->
<svg version="1.1" id="Layer_1" xmlns="http://www.w3.org/2000/svg" xmlns:xlink="http://www.w3.org/1999/xlink" x="0px" y="0px"
	 viewBox="0 0 566.9 566.9" style="enable-background:new 0 0 566.9 566.9;" xml:space="preserve">
<style type="text/css">
	.st0{fill:#CCC7B6;}
</style>
<path class="st0" d="M100.1,551h123.4V431.8h119.3V551h123.4V14.9h-366L100.1,551L100.1,551z M356.9,74.6h51.4v69.1h-51.4V74.6z
	 M356.9,189.7h51.4v69.1h-51.4V189.7z M356.9,304.8h51.4v69.1h-51.4V304.8z M257.7,74.6h51.4v69.1h-51.4V74.6z M257.7,189.7h51.4
	v69.1h-51.4V189.7z M257.7,304.8h51.4v69.1h-51.4V304.8z M158.6,74.6H210v69.1h-51.4V74.6z M158.6,189.7H210v69.1h-51.4V189.7z
	 M158.6,304.8H210v69.1h-51.4V304.8z"/>
</svg>
