<?xml version="1.0" encoding="utf-8"?>
<!-- Generator: Adobe Illustrator 22.1.0, SVG Export Plug-In . SVG Version: 6.00 Build 0)  -->
<svg version="1.1" id="Layer_1" xmlns="http://www.w3.org/2000/svg" xmlns:xlink="http://www.w3.org/1999/xlink" x="0px" y="0px"
	 viewBox="0 0 566.9 566.9" style="enable-background:new 0 0 566.9 566.9;" xml:space="preserve">
<style type="text/css">
	.st0{fill:#CDC8B8;}
</style>
<g>
	<rect x="360.1" y="126.5" class="st0" width="42.3" height="22.2"/>
	<rect x="294.6" y="294" class="st0" width="42.3" height="22.2"/>
	<rect x="294.6" y="377.7" class="st0" width="42.3" height="22.2"/>
	<rect x="294.6" y="210.2" class="st0" width="42.3" height="22.2"/>
	<rect x="229.2" y="210.2" class="st0" width="42.3" height="22.2"/>
	<rect x="229.2" y="377.7" class="st0" width="42.3" height="22.2"/>
	<rect x="229.2" y="294" class="st0" width="42.3" height="22.2"/>
	<rect x="360.1" y="168.4" class="st0" width="42.3" height="22.2"/>
	<rect x="229.2" y="419.6" class="st0" width="42.3" height="22.2"/>
	<rect x="229.2" y="335.8" class="st0" width="42.3" height="22.2"/>
	<rect x="163.7" y="126.5" class="st0" width="42.3" height="22.2"/>
	<rect x="163.7" y="168.4" class="st0" width="42.3" height="22.2"/>
	<rect x="229.2" y="168.4" class="st0" width="42.3" height="22.2"/>
	<rect x="229.2" y="126.5" class="st0" width="42.3" height="22.2"/>
	<rect x="229.2" y="252.1" class="st0" width="42.3" height="22.2"/>
	<rect x="163.7" y="377.7" class="st0" width="42.3" height="22.2"/>
	<rect x="163.7" y="419.6" class="st0" width="42.3" height="22.2"/>
	<rect x="163.7" y="210.2" class="st0" width="42.3" height="22.2"/>
	<path class="st0" d="M445.1,87.7H121.9V457h-14.9v22.2H460V457h-14.9V87.7z M422.8,457H144.1v-347h278.7V457z"/>
	<rect x="163.7" y="294" class="st0" width="42.3" height="22.2"/>
	<rect x="163.7" y="252.1" class="st0" width="42.3" height="22.2"/>
	<rect x="163.7" y="335.8" class="st0" width="42.3" height="22.2"/>
	<rect x="360.1" y="377.7" class="st0" width="42.3" height="22.2"/>
	<rect x="360.1" y="335.8" class="st0" width="42.3" height="22.2"/>
	<rect x="360.1" y="419.6" class="st0" width="42.3" height="22.2"/>
	<rect x="360.1" y="294" class="st0" width="42.3" height="22.2"/>
	<rect x="294.6" y="419.6" class="st0" width="42.3" height="22.2"/>
	<rect x="294.6" y="126.5" class="st0" width="42.3" height="22.2"/>
	<rect x="360.1" y="252.1" class="st0" width="42.3" height="22.2"/>
	<rect x="294.6" y="335.8" class="st0" width="42.3" height="22.2"/>
	<rect x="294.6" y="168.4" class="st0" width="42.3" height="22.2"/>
	<rect x="360.1" y="210.2" class="st0" width="42.3" height="22.2"/>
	<rect x="294.6" y="252.1" class="st0" width="42.3" height="22.2"/>
</g>
</svg>
