<?xml version="1.0" encoding="utf-8"?>
<!-- Generator: Adobe Illustrator 21.1.0, SVG Export Plug-In . SVG Version: 6.00 Build 0)  -->
<svg version="1.1" id="Layer_1" xmlns="http://www.w3.org/2000/svg" xmlns:xlink="http://www.w3.org/1999/xlink" x="0px" y="0px"
	 viewBox="0 0 409.2 409.2" style="enable-background:new 0 0 409.2 409.2;" xml:space="preserve">
<style type="text/css">
	.st0{opacity:0.5;fill:#CEC8B8;}
	.st1{fill:#FFFFFF;}
</style>
<path class="st0" d="M298,96.4c0,51.8-42,93.7-93.7,93.7c-51.8,0-93.7-42-93.7-93.7c0-51.8,42-93.7,93.7-93.7
	C256.1,2.7,298,44.6,298,96.4"/>
<path class="st0" d="M298,313c0,51.8-42,93.7-93.7,93.7c-51.8,0-93.7-42-93.7-93.7c0-51.8,42-93.7,93.7-93.7
	C256.1,219.3,298,261.3,298,313"/>
<path class="st0" d="M96,111c51.8,0,93.7,42,93.7,93.7c0,51.8-42,93.7-93.7,93.7c-51.8,0-93.7-42-93.7-93.7C2.3,153,44.2,111,96,111
	"/>
<path class="st0" d="M312.6,111c51.8,0,93.7,42,93.7,93.7c0,51.8-42,93.7-93.7,93.7c-51.8,0-93.7-42-93.7-93.7
	C218.9,153,260.9,111,312.6,111"/>
<g>
	<path class="st1" d="M157.7,87.9c0.9,0.5,1.6,1.2,2.1,2.2c0.5,0.9,0.8,2,0.8,3.2s-0.3,2.2-0.8,3.2c-0.5,0.9-1.2,1.7-2.1,2.2
		c-0.9,0.5-1.9,0.8-3,0.8c-1.1,0-2.1-0.3-3-0.8c-0.9-0.5-1.6-1.2-2.1-2.2c-0.5-0.9-0.8-2-0.8-3.2s0.3-2.2,0.8-3.2
		c0.5-0.9,1.2-1.7,2.1-2.2c0.9-0.5,1.9-0.8,3-0.8C155.8,87.1,156.8,87.4,157.7,87.9z M152.5,89.1c-0.6,0.4-1.2,0.9-1.5,1.6
		s-0.5,1.5-0.5,2.5c0,0.9,0.2,1.8,0.5,2.5c0.4,0.7,0.9,1.3,1.5,1.6s1.4,0.6,2.2,0.6c0.8,0,1.5-0.2,2.2-0.6c0.6-0.4,1.2-0.9,1.5-1.6
		c0.4-0.7,0.5-1.5,0.5-2.5c0-0.9-0.2-1.8-0.5-2.5c-0.4-0.7-0.9-1.2-1.5-1.6c-0.6-0.4-1.4-0.6-2.2-0.6
		C153.9,88.6,153.1,88.8,152.5,89.1z"/>
	<path class="st1" d="M169.9,90.4c0.6,0.4,1.1,0.9,1.5,1.7c0.4,0.7,0.5,1.6,0.5,2.5c0,1-0.2,1.8-0.5,2.5c-0.4,0.7-0.9,1.3-1.5,1.6
		c-0.6,0.4-1.4,0.6-2.2,0.6c-0.9,0-1.7-0.2-2.3-0.7c-0.6-0.5-1.1-1.1-1.3-1.8v6.8h-1.5V89.9h1.5v2.4c0.2-0.7,0.7-1.3,1.3-1.8
		c0.6-0.5,1.4-0.7,2.3-0.7C168.5,89.8,169.3,90,169.9,90.4z M165.6,91.6c-0.5,0.3-0.9,0.7-1.1,1.2c-0.3,0.5-0.4,1.1-0.4,1.8
		c0,0.7,0.1,1.3,0.4,1.8c0.3,0.5,0.6,0.9,1.1,1.2s1,0.4,1.6,0.4c1,0,1.7-0.3,2.3-0.9c0.6-0.6,0.9-1.4,0.9-2.5c0-1.1-0.3-1.9-0.9-2.5
		c-0.6-0.6-1.3-0.9-2.3-0.9C166.7,91.2,166.1,91.3,165.6,91.6z"/>
	<path class="st1" d="M181.3,90.4c0.6,0.4,1.1,0.9,1.5,1.7c0.4,0.7,0.5,1.6,0.5,2.5c0,1-0.2,1.8-0.5,2.5c-0.4,0.7-0.9,1.3-1.5,1.6
		c-0.6,0.4-1.4,0.6-2.2,0.6c-0.9,0-1.7-0.2-2.3-0.7c-0.6-0.5-1.1-1.1-1.3-1.8v6.8H174V89.9h1.5v2.4c0.2-0.7,0.7-1.3,1.3-1.8
		c0.6-0.5,1.4-0.7,2.3-0.7C179.9,89.8,180.7,90,181.3,90.4z M177,91.6c-0.5,0.3-0.9,0.7-1.1,1.2c-0.3,0.5-0.4,1.1-0.4,1.8
		c0,0.7,0.1,1.3,0.4,1.8c0.3,0.5,0.6,0.9,1.1,1.2s1,0.4,1.6,0.4c1,0,1.7-0.3,2.3-0.9c0.6-0.6,0.9-1.4,0.9-2.5c0-1.1-0.3-1.9-0.9-2.5
		c-0.6-0.6-1.3-0.9-2.3-0.9C178.1,91.2,177.5,91.3,177,91.6z"/>
	<path class="st1" d="M192,90.4c0.7,0.4,1.3,0.9,1.7,1.7c0.4,0.7,0.6,1.6,0.6,2.5c0,1-0.2,1.8-0.6,2.5c-0.4,0.7-1,1.3-1.7,1.6
		c-0.7,0.4-1.5,0.6-2.4,0.6s-1.7-0.2-2.4-0.6c-0.7-0.4-1.3-0.9-1.7-1.6c-0.4-0.7-0.6-1.6-0.6-2.5c0-1,0.2-1.8,0.6-2.5
		c0.4-0.7,1-1.3,1.7-1.7s1.5-0.6,2.4-0.6S191.3,90,192,90.4z M188.1,91.5c-0.5,0.2-0.8,0.6-1.1,1.1c-0.3,0.5-0.4,1.1-0.4,1.9
		c0,0.7,0.1,1.4,0.4,1.9c0.3,0.5,0.7,0.9,1.1,1.1c0.5,0.2,1,0.4,1.5,0.4s1.1-0.1,1.5-0.4c0.5-0.2,0.8-0.6,1.1-1.1
		c0.3-0.5,0.4-1.1,0.4-1.9c0-0.8-0.1-1.4-0.4-1.9c-0.3-0.5-0.7-0.9-1.1-1.1c-0.5-0.2-1-0.4-1.5-0.4S188.5,91.3,188.1,91.5z"/>
	<path class="st1" d="M199.1,90.3c0.6-0.4,1.3-0.5,2.1-0.5v1.7h-0.5c-0.9,0-1.6,0.2-2.1,0.7s-0.8,1.2-0.8,2.2v4.9h-1.5v-9.3h1.5v1.9
		C198.1,91.2,198.5,90.7,199.1,90.3z"/>
	<path class="st1" d="M207.2,97.8v1.4H206c-0.9,0-1.7-0.2-2.1-0.7c-0.5-0.5-0.7-1.2-0.7-2.3v-5h-1.4v-1.3h1.4v-2.3h1.6v2.3h2.4v1.3
		h-2.4v5c0,0.6,0.1,1,0.3,1.2s0.6,0.3,1.1,0.3H207.2z"/>
	<path class="st1" d="M217.3,89.9v9.3h-1.5V97c-0.2,0.8-0.7,1.3-1.3,1.7c-0.6,0.4-1.3,0.6-2.1,0.6c-1.1,0-1.9-0.3-2.6-1
		c-0.7-0.7-1-1.7-1-3v-5.4h1.5v5.3c0,0.9,0.2,1.6,0.7,2.1c0.5,0.5,1.1,0.8,1.9,0.8c0.8,0,1.5-0.3,2-0.8c0.5-0.5,0.8-1.3,0.8-2.4
		v-4.9H217.3z"/>
	<path class="st1" d="M227.3,90.8c0.7,0.7,1,1.7,1,3v5.4h-1.5v-5.3c0-0.9-0.2-1.6-0.7-2.1c-0.5-0.5-1.1-0.7-1.9-0.7
		c-0.8,0-1.5,0.3-2,0.8c-0.5,0.5-0.8,1.3-0.8,2.4v4.9h-1.5v-9.3h1.5v2.2c0.2-0.8,0.7-1.3,1.3-1.7c0.6-0.4,1.3-0.6,2.1-0.6
		C225.7,89.8,226.6,90.1,227.3,90.8z"/>
	<path class="st1" d="M230.6,86.5c0.2-0.2,0.4-0.3,0.8-0.3s0.6,0.1,0.8,0.3c0.2,0.2,0.3,0.4,0.3,0.7s-0.1,0.5-0.3,0.7
		c-0.2,0.2-0.4,0.3-0.8,0.3s-0.6-0.1-0.8-0.3c-0.2-0.2-0.3-0.4-0.3-0.7S230.4,86.7,230.6,86.5z M232.2,89.9v9.3h-1.5v-9.3H232.2z"/>
	<path class="st1" d="M240.1,90.6c0.6,0.5,1,1.3,1.2,2.2h-1.5c-0.1-0.6-0.3-1-0.7-1.4c-0.4-0.4-0.9-0.5-1.6-0.5
		c-0.6,0-1,0.1-1.3,0.4c-0.3,0.3-0.5,0.6-0.5,1.1c0,0.3,0.1,0.6,0.3,0.8c0.2,0.2,0.5,0.4,0.8,0.5s0.7,0.2,1.3,0.3
		c0.7,0.2,1.2,0.3,1.7,0.5c0.4,0.2,0.8,0.4,1.1,0.8c0.3,0.4,0.4,0.8,0.4,1.5c0,0.8-0.3,1.4-0.9,1.8c-0.6,0.5-1.3,0.7-2.3,0.7
		c-1.1,0-2-0.3-2.7-0.8c-0.7-0.5-1.1-1.3-1.2-2.2h1.5c0.1,0.6,0.3,1,0.7,1.4c0.4,0.3,1,0.5,1.7,0.5c0.5,0,0.9-0.1,1.2-0.4
		c0.3-0.3,0.4-0.6,0.4-1.1c0-0.4-0.1-0.6-0.3-0.9c-0.2-0.2-0.5-0.4-0.8-0.5s-0.7-0.2-1.3-0.4c-0.7-0.2-1.2-0.3-1.6-0.5
		c-0.4-0.2-0.8-0.4-1-0.8c-0.3-0.3-0.4-0.8-0.4-1.4c0-0.8,0.3-1.4,0.9-1.9s1.4-0.7,2.3-0.7C238.6,89.8,239.4,90.1,240.1,90.6z"/>
	<path class="st1" d="M247.8,97.8v1.4h-1.1c-0.9,0-1.7-0.2-2.1-0.7c-0.5-0.5-0.7-1.2-0.7-2.3v-5h-1.4v-1.3h1.4v-2.3h1.6v2.3h2.4v1.3
		h-2.4v5c0,0.6,0.1,1,0.3,1.2s0.6,0.3,1.1,0.3H247.8z"/>
	<path class="st1" d="M249.7,86.5c0.2-0.2,0.4-0.3,0.8-0.3s0.6,0.1,0.8,0.3c0.2,0.2,0.3,0.4,0.3,0.7s-0.1,0.5-0.3,0.7
		c-0.2,0.2-0.4,0.3-0.8,0.3s-0.6-0.1-0.8-0.3c-0.2-0.2-0.3-0.4-0.3-0.7S249.5,86.7,249.7,86.5z M251.2,89.9v9.3h-1.5v-9.3H251.2z"/>
	<path class="st1" d="M260.7,90.7c0.8,0.6,1.3,1.5,1.4,2.5h-1.6c-0.1-0.7-0.4-1.2-0.9-1.6s-1.1-0.6-1.9-0.6c-0.5,0-1,0.1-1.5,0.4
		c-0.4,0.2-0.8,0.6-1.1,1.1s-0.4,1.1-0.4,1.9c0,0.8,0.1,1.4,0.4,1.9s0.6,0.9,1.1,1.1c0.4,0.2,0.9,0.4,1.5,0.4c0.7,0,1.4-0.2,1.9-0.6
		s0.8-0.9,0.9-1.6h1.6c-0.2,1.1-0.7,1.9-1.4,2.5c-0.8,0.6-1.8,0.9-2.9,0.9c-0.9,0-1.7-0.2-2.4-0.6c-0.7-0.4-1.2-0.9-1.6-1.6
		c-0.4-0.7-0.6-1.6-0.6-2.5c0-1,0.2-1.8,0.6-2.5c0.4-0.7,0.9-1.3,1.6-1.7s1.5-0.6,2.4-0.6C258.9,89.8,259.9,90.1,260.7,90.7z"/>
</g>
<g>
	<path class="st1" d="M52.9,199.8l3.6,10.2l3.7-10.2h1.7l-4.4,11.9h-1.9l-4.4-11.9H52.9z"/>
	<path class="st1" d="M68.6,203c0.6,0.5,1.1,1.1,1.3,1.8v-2.4h1.5v9.3h-1.5v-2.4c-0.2,0.8-0.7,1.4-1.3,1.8s-1.4,0.7-2.3,0.7
		c-0.8,0-1.6-0.2-2.2-0.6c-0.6-0.4-1.1-0.9-1.5-1.6c-0.4-0.7-0.5-1.6-0.5-2.5c0-1,0.2-1.8,0.5-2.5s0.9-1.3,1.5-1.7
		c0.6-0.4,1.4-0.6,2.2-0.6C67.2,202.3,67.9,202.5,68.6,203z M64.4,204.6c-0.6,0.6-0.9,1.4-0.9,2.5c0,1.1,0.3,1.9,0.9,2.5
		c0.6,0.6,1.3,0.9,2.3,0.9c0.6,0,1.2-0.1,1.6-0.4c0.5-0.3,0.9-0.7,1.1-1.2c0.3-0.5,0.4-1.1,0.4-1.8c0-0.7-0.1-1.3-0.4-1.8
		c-0.3-0.5-0.6-0.9-1.1-1.2c-0.5-0.3-1-0.4-1.6-0.4C65.8,203.7,65,204,64.4,204.6z"/>
	<path class="st1" d="M75.4,199.2v12.5h-1.5v-12.5H75.4z"/>
	<path class="st1" d="M86.1,202.4v9.3h-1.5v-2.2c-0.2,0.8-0.7,1.3-1.3,1.7c-0.6,0.4-1.3,0.6-2.1,0.6c-1.1,0-1.9-0.3-2.6-1
		c-0.7-0.7-1-1.7-1-3v-5.4h1.5v5.3c0,0.9,0.2,1.6,0.7,2.1c0.5,0.5,1.1,0.8,1.9,0.8c0.8,0,1.5-0.3,2-0.8c0.5-0.5,0.8-1.3,0.8-2.4
		v-4.9H86.1z"/>
	<path class="st1" d="M97,207.4h-7.4c0,1.1,0.3,1.9,0.9,2.4c0.6,0.5,1.3,0.8,2.1,0.8c0.7,0,1.4-0.2,1.9-0.6c0.5-0.4,0.8-0.9,0.9-1.5
		H97c-0.1,0.6-0.4,1.2-0.8,1.7c-0.4,0.5-0.9,0.9-1.5,1.2c-0.6,0.3-1.3,0.4-2.1,0.4c-0.9,0-1.7-0.2-2.4-0.6c-0.7-0.4-1.2-0.9-1.6-1.6
		c-0.4-0.7-0.6-1.6-0.6-2.5c0-1,0.2-1.8,0.6-2.5c0.4-0.7,0.9-1.3,1.6-1.7s1.5-0.6,2.4-0.6c0.9,0,1.7,0.2,2.4,0.6s1.2,0.9,1.5,1.5
		c0.4,0.6,0.5,1.4,0.5,2.1C97.1,206.9,97.1,207.2,97,207.4z M95.2,204.9c-0.3-0.5-0.6-0.8-1.1-1s-0.9-0.3-1.5-0.3
		c-0.8,0-1.6,0.3-2.1,0.8s-0.9,1.3-0.9,2.3h5.9C95.6,206,95.5,205.4,95.2,204.9z"/>
	<path class="st1" d="M109.9,208.9h-5.2l-1,2.8H102l4.4-11.7h1.7l4.4,11.7h-1.7L109.9,208.9z M109.4,207.7l-2.2-6l-2.2,6H109.4z"/>
	<path class="st1" d="M120.1,203c0.6,0.5,1.1,1.1,1.3,1.8v-5.6h1.5v12.5h-1.5v-2.4c-0.2,0.8-0.7,1.4-1.3,1.8s-1.4,0.7-2.3,0.7
		c-0.8,0-1.6-0.2-2.2-0.6c-0.6-0.4-1.1-0.9-1.5-1.6c-0.4-0.7-0.5-1.6-0.5-2.5c0-1,0.2-1.8,0.5-2.5s0.9-1.3,1.5-1.7
		c0.6-0.4,1.4-0.6,2.2-0.6C118.7,202.3,119.4,202.5,120.1,203z M115.9,204.6c-0.6,0.6-0.9,1.4-0.9,2.5c0,1.1,0.3,1.9,0.9,2.5
		c0.6,0.6,1.3,0.9,2.3,0.9c0.6,0,1.2-0.1,1.6-0.4c0.5-0.3,0.9-0.7,1.1-1.2c0.3-0.5,0.4-1.1,0.4-1.8c0-0.7-0.1-1.3-0.4-1.8
		c-0.3-0.5-0.6-0.9-1.1-1.2c-0.5-0.3-1-0.4-1.6-0.4C117.3,203.7,116.5,204,115.9,204.6z"/>
	<path class="st1" d="M131.4,203c0.6,0.5,1.1,1.1,1.3,1.8v-5.6h1.5v12.5h-1.5v-2.4c-0.2,0.8-0.7,1.4-1.3,1.8s-1.4,0.7-2.3,0.7
		c-0.8,0-1.6-0.2-2.2-0.6c-0.6-0.4-1.1-0.9-1.5-1.6c-0.4-0.7-0.5-1.6-0.5-2.5c0-1,0.2-1.8,0.5-2.5s0.9-1.3,1.5-1.7
		c0.6-0.4,1.4-0.6,2.2-0.6C130.1,202.3,130.8,202.5,131.4,203z M127.3,204.6c-0.6,0.6-0.9,1.4-0.9,2.5c0,1.1,0.3,1.9,0.9,2.5
		c0.6,0.6,1.3,0.9,2.3,0.9c0.6,0,1.2-0.1,1.6-0.4c0.5-0.3,0.9-0.7,1.1-1.2c0.3-0.5,0.4-1.1,0.4-1.8c0-0.7-0.1-1.3-0.4-1.8
		c-0.3-0.5-0.6-0.9-1.1-1.2c-0.5-0.3-1-0.4-1.6-0.4C128.6,203.7,127.9,204,127.3,204.6z"/>
</g>
<g>
	<path class="st1" d="M195.3,311.9c0.9,0.7,1.6,1.7,2,2.9h-1.6c-0.3-0.8-0.8-1.4-1.5-1.9c-0.7-0.5-1.5-0.7-2.5-0.7
		c-0.8,0-1.5,0.2-2.1,0.6c-0.6,0.4-1.1,0.9-1.5,1.6c-0.4,0.7-0.5,1.5-0.5,2.5c0,0.9,0.2,1.8,0.5,2.5s0.8,1.2,1.5,1.6
		c0.6,0.4,1.3,0.6,2.1,0.6c1,0,1.8-0.2,2.5-0.7c0.7-0.5,1.2-1.1,1.5-1.9h1.6c-0.4,1.2-1,2.2-2,2.9c-0.9,0.7-2.1,1.1-3.6,1.1
		c-1.1,0-2.1-0.3-3-0.8s-1.5-1.2-2-2.1s-0.7-2-0.7-3.1c0-1.2,0.2-2.2,0.7-3.2c0.5-0.9,1.1-1.6,2-2.2s1.8-0.8,3-0.8
		C193.1,310.8,194.3,311.1,195.3,311.9z"/>
	<path class="st1" d="M205.9,314c0.7,0.4,1.3,0.9,1.7,1.7c0.4,0.7,0.6,1.6,0.6,2.5c0,1-0.2,1.8-0.6,2.5c-0.4,0.7-1,1.3-1.7,1.6
		c-0.7,0.4-1.5,0.6-2.4,0.6s-1.7-0.2-2.4-0.6c-0.7-0.4-1.3-0.9-1.7-1.6c-0.4-0.7-0.6-1.6-0.6-2.5c0-1,0.2-1.8,0.6-2.5
		c0.4-0.7,1-1.3,1.7-1.7s1.5-0.6,2.4-0.6S205.2,313.6,205.9,314z M202,315.1c-0.5,0.2-0.8,0.6-1.1,1.1c-0.3,0.5-0.4,1.1-0.4,1.9
		c0,0.7,0.1,1.4,0.4,1.9c0.3,0.5,0.7,0.9,1.1,1.1c0.5,0.2,1,0.4,1.5,0.4s1.1-0.1,1.5-0.4c0.5-0.2,0.8-0.6,1.1-1.1
		c0.3-0.5,0.4-1.1,0.4-1.9c0-0.8-0.1-1.4-0.4-1.9c-0.3-0.5-0.7-0.9-1.1-1.1c-0.5-0.2-1-0.4-1.5-0.4S202.5,314.9,202,315.1z"/>
	<path class="st1" d="M213.1,313.9c0.6-0.4,1.3-0.5,2.1-0.5v1.7h-0.5c-0.9,0-1.6,0.2-2.1,0.7s-0.8,1.2-0.8,2.2v4.9h-1.5v-9.3h1.5
		v1.9C212,314.8,212.5,314.3,213.1,313.9z"/>
	<path class="st1" d="M225,318.5h-7.4c0,1.1,0.3,1.9,0.9,2.4c0.6,0.5,1.3,0.8,2.1,0.8c0.7,0,1.4-0.2,1.9-0.6
		c0.5-0.4,0.8-0.9,0.9-1.5h1.6c-0.1,0.6-0.4,1.2-0.8,1.7c-0.4,0.5-0.9,0.9-1.5,1.2c-0.6,0.3-1.3,0.4-2.1,0.4c-0.9,0-1.7-0.2-2.4-0.6
		c-0.7-0.4-1.2-0.9-1.6-1.6c-0.4-0.7-0.6-1.6-0.6-2.5c0-1,0.2-1.8,0.6-2.5c0.4-0.7,0.9-1.3,1.6-1.7s1.5-0.6,2.4-0.6
		c0.9,0,1.7,0.2,2.4,0.6s1.2,0.9,1.5,1.5c0.4,0.6,0.5,1.4,0.5,2.1C225.1,318,225.1,318.3,225,318.5z M223.2,316
		c-0.3-0.5-0.6-0.8-1.1-1s-0.9-0.3-1.5-0.3c-0.8,0-1.6,0.3-2.1,0.8s-0.9,1.3-0.9,2.3h5.9C223.6,317.1,223.5,316.5,223.2,316z"/>
</g>
<g>
	<path class="st1" d="M270.1,208.9c-0.5,0.9-1.2,1.6-2.1,2.1s-2.1,0.7-3.4,0.7h-3.8v-11.9h3.8c1.3,0,2.4,0.2,3.4,0.7
		c0.9,0.5,1.7,1.2,2.1,2.1c0.5,0.9,0.7,2,0.7,3.2C270.8,206.9,270.6,208,270.1,208.9z M268,209.1c0.8-0.8,1.2-1.9,1.2-3.4
		s-0.4-2.6-1.2-3.4c-0.8-0.8-2-1.2-3.6-1.2h-2.1v9.2h2.1C266,210.3,267.2,209.9,268,209.1z"/>
	<path class="st1" d="M281.4,207.4H274c0,1.1,0.3,1.9,0.9,2.4c0.6,0.5,1.3,0.8,2.1,0.8c0.7,0,1.4-0.2,1.9-0.6
		c0.5-0.4,0.8-0.9,0.9-1.5h1.6c-0.1,0.6-0.4,1.2-0.8,1.7c-0.4,0.5-0.9,0.9-1.5,1.2c-0.6,0.3-1.3,0.4-2.1,0.4c-0.9,0-1.7-0.2-2.4-0.6
		c-0.7-0.4-1.2-0.9-1.6-1.6c-0.4-0.7-0.6-1.6-0.6-2.5c0-1,0.2-1.8,0.6-2.5c0.4-0.7,0.9-1.3,1.6-1.7s1.5-0.6,2.4-0.6
		c0.9,0,1.7,0.2,2.4,0.6s1.2,0.9,1.5,1.5c0.4,0.6,0.5,1.4,0.5,2.1C281.5,206.9,281.4,207.2,281.4,207.4z M279.6,204.9
		c-0.3-0.5-0.6-0.8-1.1-1s-0.9-0.3-1.5-0.3c-0.8,0-1.6,0.3-2.1,0.8s-0.9,1.3-0.9,2.3h5.9C279.9,206,279.8,205.4,279.6,204.9z"/>
	<path class="st1" d="M286.8,210.1l2.9-7.6h1.7l-3.6,9.3h-1.8l-3.6-9.3h1.7L286.8,210.1z"/>
	<path class="st1" d="M301,207.4h-7.4c0,1.1,0.3,1.9,0.9,2.4c0.6,0.5,1.3,0.8,2.1,0.8c0.7,0,1.4-0.2,1.9-0.6
		c0.5-0.4,0.8-0.9,0.9-1.5h1.6c-0.1,0.6-0.4,1.2-0.8,1.7c-0.4,0.5-0.9,0.9-1.5,1.2c-0.6,0.3-1.3,0.4-2.1,0.4c-0.9,0-1.7-0.2-2.4-0.6
		c-0.7-0.4-1.2-0.9-1.6-1.6c-0.4-0.7-0.6-1.6-0.6-2.5c0-1,0.2-1.8,0.6-2.5c0.4-0.7,0.9-1.3,1.6-1.7s1.5-0.6,2.4-0.6
		c0.9,0,1.7,0.2,2.4,0.6s1.2,0.9,1.5,1.5c0.4,0.6,0.5,1.4,0.5,2.1C301,206.9,301,207.2,301,207.4z M299.1,204.9
		c-0.3-0.5-0.6-0.8-1.1-1s-0.9-0.3-1.5-0.3c-0.8,0-1.6,0.3-2.1,0.8s-0.9,1.3-0.9,2.3h5.9C299.5,206,299.4,205.4,299.1,204.9z"/>
	<path class="st1" d="M304.6,199.2v12.5H303v-12.5H304.6z"/>
	<path class="st1" d="M313.7,202.9c0.7,0.4,1.3,0.9,1.7,1.7c0.4,0.7,0.6,1.6,0.6,2.5c0,1-0.2,1.8-0.6,2.5c-0.4,0.7-1,1.3-1.7,1.6
		c-0.7,0.4-1.5,0.6-2.4,0.6s-1.7-0.2-2.4-0.6c-0.7-0.4-1.3-0.9-1.7-1.6c-0.4-0.7-0.6-1.6-0.6-2.5c0-1,0.2-1.8,0.6-2.5
		c0.4-0.7,1-1.3,1.7-1.7s1.5-0.6,2.4-0.6S312.9,202.5,313.7,202.9z M309.7,204c-0.5,0.2-0.8,0.6-1.1,1.1c-0.3,0.5-0.4,1.1-0.4,1.9
		c0,0.7,0.1,1.4,0.4,1.9c0.3,0.5,0.7,0.9,1.1,1.1c0.5,0.2,1,0.4,1.5,0.4s1.1-0.1,1.5-0.4c0.5-0.2,0.8-0.6,1.1-1.1
		c0.3-0.5,0.4-1.1,0.4-1.9c0-0.8-0.1-1.4-0.4-1.9c-0.3-0.5-0.7-0.9-1.1-1.1c-0.5-0.2-1-0.4-1.5-0.4S310.2,203.8,309.7,204z"/>
	<path class="st1" d="M325.2,202.9c0.6,0.4,1.1,0.9,1.5,1.7c0.4,0.7,0.5,1.6,0.5,2.5c0,1-0.2,1.8-0.5,2.5c-0.4,0.7-0.9,1.3-1.5,1.6
		c-0.6,0.4-1.4,0.6-2.2,0.6c-0.9,0-1.7-0.2-2.3-0.7c-0.6-0.5-1.1-1.1-1.3-1.8v6.8h-1.5v-13.7h1.5v2.4c0.2-0.7,0.7-1.3,1.3-1.8
		c0.6-0.5,1.4-0.7,2.3-0.7C323.9,202.3,324.6,202.5,325.2,202.9z M321,204.1c-0.5,0.3-0.9,0.7-1.1,1.2c-0.3,0.5-0.4,1.1-0.4,1.8
		c0,0.7,0.1,1.3,0.4,1.8c0.3,0.5,0.6,0.9,1.1,1.2s1,0.4,1.6,0.4c1,0,1.7-0.3,2.3-0.9c0.6-0.6,0.9-1.4,0.9-2.5c0-1.1-0.3-1.9-0.9-2.5
		c-0.6-0.6-1.3-0.9-2.3-0.9C322,203.7,321.5,203.8,321,204.1z"/>
	<path class="st1" d="M343.3,203.3c0.7,0.7,1,1.7,1,3v5.4h-1.5v-5.3c0-0.9-0.2-1.6-0.7-2.1c-0.4-0.5-1.1-0.7-1.8-0.7
		c-0.8,0-1.5,0.3-2,0.8s-0.7,1.3-0.7,2.4v4.9h-1.5v-5.3c0-0.9-0.2-1.6-0.7-2.1c-0.5-0.5-1.1-0.7-1.8-0.7c-0.8,0-1.5,0.3-2,0.8
		s-0.7,1.3-0.7,2.4v4.9h-1.5v-9.3h1.5v2.1c0.2-0.7,0.6-1.3,1.2-1.7c0.6-0.4,1.2-0.6,2-0.6c0.8,0,1.5,0.2,2.1,0.6
		c0.6,0.4,1,1,1.2,1.8c0.3-0.8,0.7-1.3,1.3-1.7c0.6-0.4,1.3-0.6,2.1-0.6C341.8,202.3,342.7,202.6,343.3,203.3z"/>
	<path class="st1" d="M355.2,207.4h-7.4c0,1.1,0.3,1.9,0.9,2.4c0.6,0.5,1.3,0.8,2.1,0.8c0.7,0,1.4-0.2,1.9-0.6
		c0.5-0.4,0.8-0.9,0.9-1.5h1.6c-0.1,0.6-0.4,1.2-0.8,1.7c-0.4,0.5-0.9,0.9-1.5,1.2c-0.6,0.3-1.3,0.4-2.1,0.4c-0.9,0-1.7-0.2-2.4-0.6
		c-0.7-0.4-1.2-0.9-1.6-1.6c-0.4-0.7-0.6-1.6-0.6-2.5c0-1,0.2-1.8,0.6-2.5c0.4-0.7,0.9-1.3,1.6-1.7s1.5-0.6,2.4-0.6
		c0.9,0,1.7,0.2,2.4,0.6s1.2,0.9,1.5,1.5c0.4,0.6,0.5,1.4,0.5,2.1C355.2,206.9,355.2,207.2,355.2,207.4z M353.3,204.9
		c-0.3-0.5-0.6-0.8-1.1-1s-0.9-0.3-1.5-0.3c-0.8,0-1.6,0.3-2.1,0.8s-0.9,1.3-0.9,2.3h5.9C353.7,206,353.6,205.4,353.3,204.9z"/>
	<path class="st1" d="M364.8,203.3c0.7,0.7,1,1.7,1,3v5.4h-1.5v-5.3c0-0.9-0.2-1.6-0.7-2.1c-0.5-0.5-1.1-0.7-1.9-0.7
		c-0.8,0-1.5,0.3-2,0.8c-0.5,0.5-0.8,1.3-0.8,2.4v4.9h-1.5v-9.3h1.5v2.2c0.2-0.8,0.7-1.3,1.3-1.7c0.6-0.4,1.3-0.6,2.1-0.6
		C363.2,202.3,364.1,202.6,364.8,203.3z"/>
	<path class="st1" d="M372.5,210.3v1.4h-1.1c-0.9,0-1.7-0.2-2.1-0.7c-0.5-0.5-0.7-1.2-0.7-2.3v-5h-1.4v-1.3h1.4v-2.3h1.6v2.3h2.4
		v1.3H370v5c0,0.6,0.1,1,0.3,1.2s0.6,0.3,1.1,0.3H372.5z"/>
</g>
</svg>
