<?xml version="1.0" encoding="utf-8"?>
<!-- Generator: Adobe Illustrator 21.1.0, SVG Export Plug-In . SVG Version: 6.00 Build 0)  -->
<svg version="1.1" id="Layer_1" xmlns="http://www.w3.org/2000/svg" xmlns:xlink="http://www.w3.org/1999/xlink" x="0px" y="0px"
	 viewBox="0 0 409.2 409.2" style="enable-background:new 0 0 409.2 409.2;" xml:space="preserve">
<style type="text/css">
	.st0{opacity:0.5;fill:#CEC8B8;}
	.st1{fill:#FFFFFF;}
</style>
<path class="st0" d="M298,96.4c0,51.8-42,93.7-93.7,93.7c-51.8,0-93.7-42-93.7-93.7c0-51.8,42-93.7,93.7-93.7
	C256.1,2.7,298,44.6,298,96.4"/>
<path class="st0" d="M298,313c0,51.8-42,93.7-93.7,93.7c-51.8,0-93.7-42-93.7-93.7c0-51.8,42-93.7,93.7-93.7
	C256.1,219.3,298,261.3,298,313"/>
<path class="st0" d="M96,111c51.8,0,93.7,42,93.7,93.7c0,51.8-42,93.7-93.7,93.7c-51.8,0-93.7-42-93.7-93.7C2.3,153,44.2,111,96,111
	"/>
<path class="st0" d="M311.4,111c51.8,0,93.7,42,93.7,93.7c0,51.8-42,93.7-93.7,93.7c-51.8,0-93.7-42-93.7-93.7
	C217.6,153,259.6,111,311.4,111"/>
<g>
	<path class="st1" d="M189,94.5c0.5,0.5,0.7,1.2,0.7,1.9c0,1-0.3,1.7-1,2.3s-1.6,0.9-2.9,0.9h-4.4V87.7h4.4c1.2,0,2.1,0.3,2.7,0.8
		c0.6,0.5,0.9,1.3,0.9,2.2c0,0.8-0.2,1.4-0.6,1.9c-0.4,0.5-0.9,0.8-1.6,0.9C187.9,93.6,188.5,94,189,94.5z M182.9,93h2.6
		c0.8,0,1.3-0.2,1.7-0.5c0.4-0.3,0.6-0.8,0.6-1.5c0-0.6-0.2-1.1-0.6-1.4c-0.4-0.3-1-0.5-1.8-0.5h-2.5V93z M187.4,97.8
		c0.4-0.4,0.7-0.9,0.7-1.6c0-0.7-0.2-1.2-0.7-1.6c-0.5-0.4-1.1-0.6-1.9-0.6h-2.6v4.3h2.6C186.4,98.4,187,98.2,187.4,97.8z"/>
	<path class="st1" d="M194.5,90.7c0.6-0.4,1.3-0.5,2.1-0.5v1.7h-0.5c-0.9,0-1.6,0.2-2.1,0.7c-0.6,0.4-0.8,1.2-0.8,2.2v4.9h-1.5v-9.3
		h1.5v1.9C193.4,91.6,193.9,91.1,194.5,90.7z"/>
	<path class="st1" d="M198.1,87c0.2-0.2,0.4-0.3,0.8-0.3c0.3,0,0.6,0.1,0.8,0.3c0.2,0.2,0.3,0.4,0.3,0.7s-0.1,0.5-0.3,0.7
		c-0.2,0.2-0.4,0.3-0.8,0.3c-0.3,0-0.6-0.1-0.8-0.3c-0.2-0.2-0.3-0.4-0.3-0.7S197.9,87.1,198.1,87z M199.6,90.4v9.3h-1.5v-9.3H199.6
		z"/>
	<path class="st1" d="M208.2,90.9c0.6,0.5,1.1,1.1,1.3,1.8v-5.6h1.5v12.5h-1.5v-2.4c-0.2,0.8-0.7,1.4-1.3,1.8s-1.4,0.7-2.3,0.7
		c-0.8,0-1.6-0.2-2.2-0.6c-0.6-0.4-1.1-0.9-1.5-1.6c-0.4-0.7-0.5-1.6-0.5-2.5c0-1,0.2-1.8,0.5-2.5c0.4-0.7,0.9-1.3,1.5-1.7
		c0.6-0.4,1.4-0.6,2.2-0.6C206.8,90.2,207.6,90.5,208.2,90.9z M204.1,92.5c-0.6,0.6-0.9,1.4-0.9,2.5c0,1.1,0.3,1.9,0.9,2.5
		c0.6,0.6,1.3,0.9,2.3,0.9c0.6,0,1.2-0.1,1.6-0.4c0.5-0.3,0.9-0.7,1.1-1.2c0.3-0.5,0.4-1.1,0.4-1.8c0-0.7-0.1-1.3-0.4-1.8
		c-0.3-0.5-0.6-0.9-1.1-1.2c-0.5-0.3-1-0.4-1.6-0.4C205.4,91.6,204.6,91.9,204.1,92.5z"/>
	<path class="st1" d="M219.6,90.9c0.6,0.5,1.1,1.1,1.3,1.8v-2.4h1.5v9.4c0,0.9-0.2,1.6-0.5,2.3c-0.4,0.7-0.9,1.2-1.5,1.6
		c-0.7,0.4-1.4,0.6-2.3,0.6c-1.3,0-2.3-0.3-3.1-0.9c-0.8-0.6-1.3-1.4-1.5-2.4h1.5c0.2,0.6,0.5,1.1,1,1.5c0.5,0.4,1.1,0.5,1.9,0.5
		c0.8,0,1.5-0.3,2.1-0.8c0.5-0.5,0.8-1.3,0.8-2.2v-2.5c-0.2,0.8-0.7,1.4-1.3,1.8s-1.4,0.7-2.3,0.7c-0.8,0-1.6-0.2-2.2-0.6
		c-0.6-0.4-1.1-0.9-1.5-1.6c-0.4-0.7-0.5-1.6-0.5-2.5c0-1,0.2-1.8,0.5-2.5c0.4-0.7,0.9-1.3,1.5-1.7c0.6-0.4,1.4-0.6,2.2-0.6
		C218.2,90.2,219,90.5,219.6,90.9z M215.5,92.5c-0.6,0.6-0.9,1.4-0.9,2.5c0,1.1,0.3,1.9,0.9,2.5c0.6,0.6,1.3,0.9,2.3,0.9
		c0.6,0,1.2-0.1,1.6-0.4c0.5-0.3,0.9-0.7,1.1-1.2c0.3-0.5,0.4-1.1,0.4-1.8c0-0.7-0.1-1.3-0.4-1.8c-0.3-0.5-0.6-0.9-1.1-1.2
		c-0.5-0.3-1-0.4-1.6-0.4C216.8,91.6,216,91.9,215.5,92.5z"/>
	<path class="st1" d="M233.4,95.3h-7.4c0,1.1,0.3,1.9,0.9,2.4c0.6,0.5,1.3,0.8,2.1,0.8c0.7,0,1.4-0.2,1.9-0.6
		c0.5-0.4,0.8-0.9,0.9-1.5h1.6c-0.1,0.6-0.4,1.2-0.8,1.7c-0.4,0.5-0.9,0.9-1.5,1.2c-0.6,0.3-1.3,0.4-2.1,0.4c-0.9,0-1.7-0.2-2.4-0.6
		c-0.7-0.4-1.2-0.9-1.6-1.6c-0.4-0.7-0.6-1.6-0.6-2.5c0-1,0.2-1.8,0.6-2.5s0.9-1.3,1.6-1.7s1.5-0.6,2.4-0.6c0.9,0,1.7,0.2,2.4,0.6
		c0.7,0.4,1.2,0.9,1.5,1.5c0.4,0.6,0.5,1.4,0.5,2.1C233.4,94.8,233.4,95.1,233.4,95.3z M231.5,92.9c-0.3-0.5-0.6-0.8-1.1-1
		c-0.5-0.2-0.9-0.3-1.5-0.3c-0.8,0-1.6,0.3-2.1,0.8c-0.6,0.5-0.9,1.3-0.9,2.3h5.9C231.9,93.9,231.8,93.3,231.5,92.9z"/>
</g>
<g>
	<path class="st1" d="M63.8,200.4v11.7h-1.5v-9.3l-3.7,9.3h-1.4l-3.8-9.3v9.3h-1.5v-11.7h1.8l4.2,9.8l4.1-9.8H63.8z"/>
	<path class="st1" d="M74.8,207.8h-7.4c0,1.1,0.3,1.9,0.9,2.4c0.6,0.5,1.3,0.8,2.1,0.8c0.7,0,1.4-0.2,1.9-0.6
		c0.5-0.4,0.8-0.9,0.9-1.5h1.6c-0.1,0.6-0.4,1.2-0.8,1.7c-0.4,0.5-0.9,0.9-1.5,1.2c-0.6,0.3-1.3,0.4-2.1,0.4c-0.9,0-1.7-0.2-2.4-0.6
		c-0.7-0.4-1.2-0.9-1.6-1.6c-0.4-0.7-0.6-1.6-0.6-2.5c0-1,0.2-1.8,0.6-2.5s0.9-1.3,1.6-1.7s1.5-0.6,2.4-0.6c0.9,0,1.7,0.2,2.4,0.6
		c0.7,0.4,1.2,0.9,1.5,1.5c0.4,0.6,0.5,1.4,0.5,2.1C74.8,207.3,74.8,207.6,74.8,207.8z M73,205.4c-0.3-0.5-0.6-0.8-1.1-1
		c-0.5-0.2-0.9-0.3-1.5-0.3c-0.8,0-1.6,0.3-2.1,0.8c-0.6,0.5-0.9,1.3-0.9,2.3h5.9C73.3,206.4,73.2,205.8,73,205.4z"/>
	<path class="st1" d="M77.7,210.8h5v1.3H76v-1.2l4.7-6.7h-4.6v-1.3h6.4v1.3L77.7,210.8z"/>
	<path class="st1" d="M85.3,210.8h5v1.3h-6.7v-1.2l4.7-6.7h-4.6v-1.3h6.4v1.3L85.3,210.8z"/>
	<path class="st1" d="M98,203.4c0.6,0.5,1.1,1.1,1.3,1.8v-2.4h1.5v9.3h-1.5v-2.4c-0.2,0.8-0.7,1.4-1.3,1.8s-1.4,0.7-2.3,0.7
		c-0.8,0-1.6-0.2-2.2-0.6c-0.6-0.4-1.1-0.9-1.5-1.6c-0.4-0.7-0.5-1.6-0.5-2.5c0-1,0.2-1.8,0.5-2.5c0.4-0.7,0.9-1.3,1.5-1.7
		c0.6-0.4,1.4-0.6,2.2-0.6C96.6,202.8,97.4,203,98,203.4z M93.9,205c-0.6,0.6-0.9,1.4-0.9,2.5c0,1.1,0.3,1.9,0.9,2.5
		c0.6,0.6,1.3,0.9,2.3,0.9c0.6,0,1.2-0.1,1.6-0.4c0.5-0.3,0.9-0.7,1.1-1.2c0.3-0.5,0.4-1.1,0.4-1.8c0-0.7-0.1-1.3-0.4-1.8
		c-0.3-0.5-0.6-0.9-1.1-1.2c-0.5-0.3-1-0.4-1.6-0.4C95.2,204.1,94.4,204.4,93.9,205z"/>
	<path class="st1" d="M110.8,203.8c0.7,0.7,1,1.7,1,3v5.4h-1.5v-5.3c0-0.9-0.2-1.6-0.7-2.1c-0.5-0.5-1.1-0.7-1.9-0.7
		c-0.8,0-1.5,0.3-2,0.8c-0.5,0.5-0.8,1.3-0.8,2.4v4.9h-1.5v-9.3h1.5v2.2c0.2-0.8,0.7-1.3,1.3-1.7c0.6-0.4,1.3-0.6,2.1-0.6
		C109.3,202.7,110.1,203.1,110.8,203.8z"/>
	<path class="st1" d="M114.2,199.5c0.2-0.2,0.4-0.3,0.8-0.3c0.3,0,0.6,0.1,0.8,0.3c0.2,0.2,0.3,0.4,0.3,0.7s-0.1,0.5-0.3,0.7
		c-0.2,0.2-0.4,0.3-0.8,0.3c-0.3,0-0.6-0.1-0.8-0.3c-0.2-0.2-0.3-0.4-0.3-0.7S114,199.6,114.2,199.5z M115.7,202.9v9.3h-1.5v-9.3
		H115.7z"/>
	<path class="st1" d="M125.7,203.8c0.7,0.7,1,1.7,1,3v5.4h-1.5v-5.3c0-0.9-0.2-1.6-0.7-2.1c-0.5-0.5-1.1-0.7-1.9-0.7
		c-0.8,0-1.5,0.3-2,0.8c-0.5,0.5-0.8,1.3-0.8,2.4v4.9h-1.5v-9.3h1.5v2.2c0.2-0.8,0.7-1.3,1.3-1.7c0.6-0.4,1.3-0.6,2.1-0.6
		C124.1,202.7,125,203.1,125.7,203.8z"/>
	<path class="st1" d="M137.5,207.8h-7.4c0,1.1,0.3,1.9,0.9,2.4c0.6,0.5,1.3,0.8,2.1,0.8c0.7,0,1.4-0.2,1.9-0.6
		c0.5-0.4,0.8-0.9,0.9-1.5h1.6c-0.1,0.6-0.4,1.2-0.8,1.7c-0.4,0.5-0.9,0.9-1.5,1.2c-0.6,0.3-1.3,0.4-2.1,0.4c-0.9,0-1.7-0.2-2.4-0.6
		c-0.7-0.4-1.2-0.9-1.6-1.6c-0.4-0.7-0.6-1.6-0.6-2.5c0-1,0.2-1.8,0.6-2.5s0.9-1.3,1.6-1.7s1.5-0.6,2.4-0.6c0.9,0,1.7,0.2,2.4,0.6
		c0.7,0.4,1.2,0.9,1.5,1.5c0.4,0.6,0.5,1.4,0.5,2.1C137.6,207.3,137.5,207.6,137.5,207.8z M135.7,205.4c-0.3-0.5-0.6-0.8-1.1-1
		c-0.5-0.2-0.9-0.3-1.5-0.3c-0.8,0-1.6,0.3-2.1,0.8c-0.6,0.5-0.9,1.3-0.9,2.3h5.9C136,206.4,135.9,205.8,135.7,205.4z"/>
</g>
<g>
	<path class="st1" d="M142.5,318.5v4.8h-1.5v-11.9h3.8c1.4,0,2.4,0.3,3.1,1s1,1.5,1,2.6c0,1.1-0.3,2-1,2.6c-0.7,0.6-1.7,0.9-3,0.9
		H142.5z M146.6,316.6c0.4-0.4,0.6-1,0.6-1.7c0-0.7-0.2-1.3-0.6-1.7s-1.1-0.6-2-0.6h-2.1v4.5h2.1C145.5,317.2,146.2,317,146.6,316.6
		z"/>
	<path class="st1" d="M153.4,314.4c0.6-0.4,1.3-0.5,2.1-0.5v1.7h-0.5c-0.9,0-1.6,0.2-2.1,0.7c-0.6,0.4-0.8,1.2-0.8,2.2v4.9h-1.5V314
		h1.5v1.9C152.4,315.2,152.9,314.7,153.4,314.4z"/>
	<path class="st1" d="M165.4,319H158c0,1.1,0.3,1.9,0.9,2.4c0.6,0.5,1.3,0.8,2.1,0.8c0.7,0,1.4-0.2,1.9-0.6c0.5-0.4,0.8-0.9,0.9-1.5
		h1.6c-0.1,0.6-0.4,1.2-0.8,1.7c-0.4,0.5-0.9,0.9-1.5,1.2c-0.6,0.3-1.3,0.4-2.1,0.4c-0.9,0-1.7-0.2-2.4-0.6
		c-0.7-0.4-1.2-0.9-1.6-1.6c-0.4-0.7-0.6-1.6-0.6-2.5c0-1,0.2-1.8,0.6-2.5s0.9-1.3,1.6-1.7s1.5-0.6,2.4-0.6c0.9,0,1.7,0.2,2.4,0.6
		c0.7,0.4,1.2,0.9,1.5,1.5c0.4,0.6,0.5,1.4,0.5,2.1C165.5,318.4,165.5,318.7,165.4,319z M163.6,316.5c-0.3-0.5-0.6-0.8-1.1-1
		c-0.5-0.2-0.9-0.3-1.5-0.3c-0.8,0-1.6,0.3-2.1,0.8c-0.6,0.5-0.9,1.3-0.9,2.3h5.9C164,317.5,163.9,316.9,163.6,316.5z"/>
	<path class="st1" d="M169.8,312.2c-0.3,0.3-0.5,0.8-0.5,1.5v0.3h2.2v1.4h-2.2v7.9h-1.5v-7.9h-1.3V314h1.3v-0.4
		c0-2.2,1.2-3.3,3.7-3.2v1.4C170.7,311.8,170.1,311.9,169.8,312.2z"/>
	<path class="st1" d="M181.5,319h-7.4c0,1.1,0.3,1.9,0.9,2.4c0.6,0.5,1.3,0.8,2.1,0.8c0.7,0,1.4-0.2,1.9-0.6
		c0.5-0.4,0.8-0.9,0.9-1.5h1.6c-0.1,0.6-0.4,1.2-0.8,1.7c-0.4,0.5-0.9,0.9-1.5,1.2c-0.6,0.3-1.3,0.4-2.1,0.4c-0.9,0-1.7-0.2-2.4-0.6
		c-0.7-0.4-1.2-0.9-1.6-1.6c-0.4-0.7-0.6-1.6-0.6-2.5c0-1,0.2-1.8,0.6-2.5s0.9-1.3,1.6-1.7s1.5-0.6,2.4-0.6c0.9,0,1.7,0.2,2.4,0.6
		c0.7,0.4,1.2,0.9,1.5,1.5c0.4,0.6,0.5,1.4,0.5,2.1C181.6,318.4,181.6,318.7,181.5,319z M179.7,316.5c-0.3-0.5-0.6-0.8-1.1-1
		c-0.5-0.2-0.9-0.3-1.5-0.3c-0.8,0-1.6,0.3-2.1,0.8c-0.6,0.5-0.9,1.3-0.9,2.3h5.9C180.1,317.5,180,316.9,179.7,316.5z"/>
	<path class="st1" d="M186.5,314.4c0.6-0.4,1.3-0.5,2.1-0.5v1.7h-0.5c-0.9,0-1.6,0.2-2.1,0.7c-0.6,0.4-0.8,1.2-0.8,2.2v4.9h-1.5V314
		h1.5v1.9C185.5,315.2,185.9,314.7,186.5,314.4z"/>
	<path class="st1" d="M193,314.4c0.6-0.4,1.3-0.5,2.1-0.5v1.7h-0.5c-0.9,0-1.6,0.2-2.1,0.7c-0.6,0.4-0.8,1.2-0.8,2.2v4.9h-1.5V314
		h1.5v1.9C192,315.2,192.4,314.7,193,314.4z"/>
	<path class="st1" d="M205,319h-7.4c0,1.1,0.3,1.9,0.9,2.4c0.6,0.5,1.3,0.8,2.1,0.8c0.7,0,1.4-0.2,1.9-0.6c0.5-0.4,0.8-0.9,0.9-1.5
		h1.6c-0.1,0.6-0.4,1.2-0.8,1.7c-0.4,0.5-0.9,0.9-1.5,1.2c-0.6,0.3-1.3,0.4-2.1,0.4c-0.9,0-1.7-0.2-2.4-0.6
		c-0.7-0.4-1.2-0.9-1.6-1.6c-0.4-0.7-0.6-1.6-0.6-2.5c0-1,0.2-1.8,0.6-2.5s0.9-1.3,1.6-1.7s1.5-0.6,2.4-0.6c0.9,0,1.7,0.2,2.4,0.6
		c0.7,0.4,1.2,0.9,1.5,1.5c0.4,0.6,0.5,1.4,0.5,2.1C205,318.4,205,318.7,205,319z M203.1,316.5c-0.3-0.5-0.6-0.8-1.1-1
		c-0.5-0.2-0.9-0.3-1.5-0.3c-0.8,0-1.6,0.3-2.1,0.8c-0.6,0.5-0.9,1.3-0.9,2.3h5.9C203.5,317.5,203.4,316.9,203.1,316.5z"/>
	<path class="st1" d="M213.1,314.5c0.6,0.5,1.1,1.1,1.3,1.8v-5.6h1.5v12.5h-1.5v-2.4c-0.2,0.8-0.7,1.4-1.3,1.8s-1.4,0.7-2.3,0.7
		c-0.8,0-1.6-0.2-2.2-0.6c-0.6-0.4-1.1-0.9-1.5-1.6c-0.4-0.7-0.5-1.6-0.5-2.5c0-1,0.2-1.8,0.5-2.5c0.4-0.7,0.9-1.3,1.5-1.7
		c0.6-0.4,1.4-0.6,2.2-0.6C211.8,313.9,212.5,314.1,213.1,314.5z M209,316.1c-0.6,0.6-0.9,1.4-0.9,2.5c0,1.1,0.3,1.9,0.9,2.5
		c0.6,0.6,1.3,0.9,2.3,0.9c0.6,0,1.2-0.1,1.6-0.4c0.5-0.3,0.9-0.7,1.1-1.2c0.3-0.5,0.4-1.1,0.4-1.8c0-0.7-0.1-1.3-0.4-1.8
		c-0.3-0.5-0.6-0.9-1.1-1.2c-0.5-0.3-1-0.4-1.6-0.4C210.3,315.2,209.6,315.5,209,316.1z"/>
	<path class="st1" d="M224.2,312.6v4.1h4.5v1.2h-4.5v4.2h5v1.3h-6.6v-11.9h6.6v1.3H224.2z"/>
	<path class="st1" d="M237.2,314.5c0.6,0.4,1,1,1.3,1.7V314h1.5v13.7h-1.5V321c-0.3,0.7-0.7,1.3-1.3,1.7c-0.6,0.4-1.3,0.6-2.2,0.6
		c-0.8,0-1.6-0.2-2.2-0.6s-1.2-0.9-1.6-1.7c-0.4-0.7-0.6-1.5-0.6-2.5s0.2-1.8,0.6-2.5c0.4-0.7,0.9-1.3,1.6-1.7s1.4-0.6,2.2-0.6
		C235.9,313.9,236.6,314.1,237.2,314.5z M233.1,316.1c-0.6,0.6-0.9,1.4-0.9,2.5c0,1.1,0.3,1.9,0.9,2.5c0.6,0.6,1.3,0.9,2.3,0.9
		c0.6,0,1.1-0.1,1.6-0.4c0.5-0.3,0.9-0.7,1.1-1.2c0.3-0.5,0.4-1.1,0.4-1.8c0-0.7-0.1-1.3-0.4-1.8c-0.3-0.5-0.7-0.9-1.1-1.2
		c-0.5-0.3-1-0.4-1.6-0.4C234.4,315.2,233.7,315.5,233.1,316.1z"/>
	<path class="st1" d="M250.7,314v9.3h-1.5v-2.2c-0.2,0.8-0.7,1.3-1.3,1.7s-1.3,0.6-2.1,0.6c-1.1,0-1.9-0.3-2.6-1c-0.7-0.7-1-1.7-1-3
		V314h1.5v5.3c0,0.9,0.2,1.6,0.7,2.1c0.5,0.5,1.1,0.8,1.9,0.8c0.8,0,1.5-0.3,2-0.8c0.5-0.5,0.8-1.3,0.8-2.4V314H250.7z"/>
	<path class="st1" d="M253.2,310.6c0.2-0.2,0.4-0.3,0.8-0.3c0.3,0,0.6,0.1,0.8,0.3c0.2,0.2,0.3,0.4,0.3,0.7s-0.1,0.5-0.3,0.7
		c-0.2,0.2-0.4,0.3-0.8,0.3c-0.3,0-0.6-0.1-0.8-0.3c-0.2-0.2-0.3-0.4-0.3-0.7S253,310.8,253.2,310.6z M254.8,314v9.3h-1.5V314H254.8
		z"/>
	<path class="st1" d="M261.6,321.9v1.4h-1.1c-0.9,0-1.7-0.2-2.1-0.7c-0.5-0.5-0.7-1.2-0.7-2.3v-5h-1.4V314h1.4v-2.3h1.6v2.3h2.4v1.3
		h-2.4v5c0,0.6,0.1,1,0.3,1.2s0.6,0.3,1.1,0.3H261.6z"/>
	<path class="st1" d="M264.2,314l3,7.3l2.8-7.3h1.7l-5.5,13.7h-1.7l1.9-4.5l-3.9-9.1H264.2z"/>
</g>
<g>
	<path class="st1" d="M272.5,201.2c0.9,0.7,1.6,1.7,2,2.9h-1.6c-0.3-0.8-0.8-1.4-1.5-1.9c-0.7-0.5-1.5-0.7-2.5-0.7
		c-0.8,0-1.5,0.2-2.1,0.6c-0.6,0.4-1.1,0.9-1.5,1.6c-0.4,0.7-0.5,1.5-0.5,2.5c0,0.9,0.2,1.8,0.5,2.5c0.4,0.7,0.8,1.2,1.5,1.6
		c0.6,0.4,1.3,0.6,2.1,0.6c1,0,1.8-0.2,2.5-0.7c0.7-0.5,1.2-1.1,1.5-1.9h1.6c-0.4,1.2-1,2.2-2,2.9c-0.9,0.7-2.1,1.1-3.6,1.1
		c-1.1,0-2.1-0.3-3-0.8c-0.9-0.5-1.5-1.2-2-2.1c-0.5-0.9-0.7-2-0.7-3.1c0-1.2,0.2-2.2,0.7-3.2c0.5-0.9,1.1-1.6,2-2.2
		c0.9-0.5,1.8-0.8,3-0.8C270.3,200.1,271.5,200.5,272.5,201.2z"/>
	<path class="st1" d="M283.1,203.3c0.7,0.4,1.3,0.9,1.7,1.7c0.4,0.7,0.6,1.6,0.6,2.5c0,1-0.2,1.8-0.6,2.5c-0.4,0.7-1,1.3-1.7,1.6
		c-0.7,0.4-1.5,0.6-2.4,0.6c-0.9,0-1.7-0.2-2.4-0.6c-0.7-0.4-1.3-0.9-1.7-1.6c-0.4-0.7-0.6-1.6-0.6-2.5c0-1,0.2-1.8,0.6-2.5
		c0.4-0.7,1-1.3,1.7-1.7s1.5-0.6,2.4-0.6C281.6,202.8,282.4,202.9,283.1,203.3z M279.2,204.5c-0.5,0.2-0.8,0.6-1.1,1.1
		s-0.4,1.1-0.4,1.9c0,0.7,0.1,1.4,0.4,1.9s0.7,0.9,1.1,1.1c0.5,0.2,1,0.4,1.5,0.4s1.1-0.1,1.5-0.4c0.5-0.2,0.8-0.6,1.1-1.1
		s0.4-1.1,0.4-1.9c0-0.8-0.1-1.4-0.4-1.9s-0.7-0.9-1.1-1.1c-0.5-0.2-1-0.4-1.5-0.4S279.6,204.2,279.2,204.5z"/>
	<path class="st1" d="M294.9,203.8c0.7,0.7,1,1.7,1,3v5.4h-1.5v-5.3c0-0.9-0.2-1.6-0.7-2.1c-0.5-0.5-1.1-0.7-1.9-0.7
		c-0.8,0-1.5,0.3-2,0.8c-0.5,0.5-0.8,1.3-0.8,2.4v4.9h-1.5v-9.3h1.5v2.2c0.2-0.8,0.7-1.3,1.3-1.7c0.6-0.4,1.3-0.6,2.1-0.6
		C293.3,202.7,294.2,203.1,294.9,203.8z"/>
	<path class="st1" d="M303.7,203.6c0.6,0.5,1,1.3,1.2,2.2h-1.5c-0.1-0.6-0.3-1-0.7-1.4s-0.9-0.5-1.6-0.5c-0.6,0-1,0.1-1.3,0.4
		c-0.3,0.3-0.5,0.6-0.5,1.1c0,0.3,0.1,0.6,0.3,0.8c0.2,0.2,0.5,0.4,0.8,0.5s0.7,0.2,1.3,0.3c0.7,0.2,1.2,0.3,1.7,0.5
		c0.4,0.2,0.8,0.4,1.1,0.8c0.3,0.4,0.4,0.8,0.4,1.5c0,0.8-0.3,1.4-0.9,1.8c-0.6,0.5-1.3,0.7-2.3,0.7c-1.1,0-2-0.3-2.7-0.8
		c-0.7-0.5-1.1-1.3-1.2-2.2h1.5c0.1,0.6,0.3,1,0.7,1.4s1,0.5,1.7,0.5c0.5,0,0.9-0.1,1.2-0.4s0.4-0.6,0.4-1.1c0-0.4-0.1-0.6-0.3-0.9
		s-0.5-0.4-0.8-0.5c-0.3-0.1-0.8-0.2-1.3-0.4c-0.7-0.2-1.2-0.3-1.6-0.5s-0.8-0.4-1-0.8c-0.3-0.3-0.4-0.8-0.4-1.4
		c0-0.8,0.3-1.4,0.9-1.9c0.6-0.5,1.4-0.7,2.3-0.7C302.2,202.8,303,203,303.7,203.6z"/>
	<path class="st1" d="M311.4,210.8v1.4h-1.1c-0.9,0-1.7-0.2-2.1-0.7c-0.5-0.5-0.7-1.2-0.7-2.3v-5H306v-1.3h1.4v-2.3h1.6v2.3h2.4v1.3
		h-2.4v5c0,0.6,0.1,1,0.3,1.2s0.6,0.3,1.1,0.3H311.4z"/>
	<path class="st1" d="M316.1,203.2c0.6-0.4,1.3-0.5,2.1-0.5v1.7h-0.5c-0.9,0-1.6,0.2-2.1,0.7c-0.6,0.4-0.8,1.2-0.8,2.2v4.9h-1.5
		v-9.3h1.5v1.9C315.1,204.1,315.5,203.6,316.1,203.2z"/>
	<path class="st1" d="M328,202.9v9.3h-1.5V210c-0.2,0.8-0.7,1.3-1.3,1.7s-1.3,0.6-2.1,0.6c-1.1,0-1.9-0.3-2.6-1c-0.7-0.7-1-1.7-1-3
		v-5.4h1.5v5.3c0,0.9,0.2,1.6,0.7,2.1c0.5,0.5,1.1,0.8,1.9,0.8c0.8,0,1.5-0.3,2-0.8c0.5-0.5,0.8-1.3,0.8-2.4v-4.9H328z"/>
	<path class="st1" d="M337.5,203.7c0.8,0.6,1.3,1.5,1.4,2.5h-1.6c-0.1-0.7-0.4-1.2-0.9-1.6s-1.1-0.6-1.9-0.6c-0.5,0-1,0.1-1.5,0.4
		c-0.4,0.2-0.8,0.6-1.1,1.1s-0.4,1.1-0.4,1.9c0,0.8,0.1,1.4,0.4,1.9s0.6,0.9,1.1,1.1c0.4,0.2,0.9,0.4,1.5,0.4c0.7,0,1.4-0.2,1.9-0.6
		s0.8-0.9,0.9-1.6h1.6c-0.2,1.1-0.7,1.9-1.4,2.5s-1.8,0.9-2.9,0.9c-0.9,0-1.7-0.2-2.4-0.6c-0.7-0.4-1.2-0.9-1.6-1.6
		c-0.4-0.7-0.6-1.6-0.6-2.5c0-1,0.2-1.8,0.6-2.5s0.9-1.3,1.6-1.7s1.5-0.6,2.4-0.6C335.7,202.8,336.7,203.1,337.5,203.7z"/>
	<path class="st1" d="M345.4,210.8v1.4h-1.1c-0.9,0-1.7-0.2-2.1-0.7c-0.5-0.5-0.7-1.2-0.7-2.3v-5H340v-1.3h1.4v-2.3h1.6v2.3h2.4v1.3
		h-2.4v5c0,0.6,0.1,1,0.3,1.2s0.6,0.3,1.1,0.3H345.4z"/>
	<path class="st1" d="M347.3,199.5c0.2-0.2,0.4-0.3,0.8-0.3c0.3,0,0.6,0.1,0.8,0.3c0.2,0.2,0.3,0.4,0.3,0.7s-0.1,0.5-0.3,0.7
		c-0.2,0.2-0.4,0.3-0.8,0.3c-0.3,0-0.6-0.1-0.8-0.3c-0.2-0.2-0.3-0.4-0.3-0.7S347.1,199.6,347.3,199.5z M348.8,202.9v9.3h-1.5v-9.3
		H348.8z"/>
	<path class="st1" d="M357.8,203.3c0.7,0.4,1.3,0.9,1.7,1.7c0.4,0.7,0.6,1.6,0.6,2.5c0,1-0.2,1.8-0.6,2.5c-0.4,0.7-1,1.3-1.7,1.6
		c-0.7,0.4-1.5,0.6-2.4,0.6c-0.9,0-1.7-0.2-2.4-0.6c-0.7-0.4-1.3-0.9-1.7-1.6c-0.4-0.7-0.6-1.6-0.6-2.5c0-1,0.2-1.8,0.6-2.5
		c0.4-0.7,1-1.3,1.7-1.7s1.5-0.6,2.4-0.6C356.3,202.8,357.1,202.9,357.8,203.3z M353.9,204.5c-0.5,0.2-0.8,0.6-1.1,1.1
		s-0.4,1.1-0.4,1.9c0,0.7,0.1,1.4,0.4,1.9s0.7,0.9,1.1,1.1c0.5,0.2,1,0.4,1.5,0.4s1.1-0.1,1.5-0.4c0.5-0.2,0.8-0.6,1.1-1.1
		s0.4-1.1,0.4-1.9c0-0.8-0.1-1.4-0.4-1.9s-0.7-0.9-1.1-1.1c-0.5-0.2-1-0.4-1.5-0.4S354.4,204.2,353.9,204.5z"/>
	<path class="st1" d="M369.6,203.8c0.7,0.7,1,1.7,1,3v5.4h-1.5v-5.3c0-0.9-0.2-1.6-0.7-2.1c-0.5-0.5-1.1-0.7-1.9-0.7
		c-0.8,0-1.5,0.3-2,0.8c-0.5,0.5-0.8,1.3-0.8,2.4v4.9h-1.5v-9.3h1.5v2.2c0.2-0.8,0.7-1.3,1.3-1.7c0.6-0.4,1.3-0.6,2.1-0.6
		C368.1,202.7,369,203.1,369.6,203.8z"/>
</g>
</svg>
